<?xml version="1.0" encoding="utf-8"?>
<!-- Generator: Adobe Illustrator 27.7.0, SVG Export Plug-In . SVG Version: 6.00 Build 0)  -->
<svg version="1.1" id="Layer_1" xmlns="http://www.w3.org/2000/svg" xmlns:xlink="http://www.w3.org/1999/xlink" x="0px" y="0px"
	 viewBox="0 0 715 275" style="enable-background:new 0 0 715 275;" xml:space="preserve">
<style type="text/css">
	.st0{fill:#333333;fill-opacity:0;}
	.st1{fill:#B1D9FE;}
	.st2{fill:#FFDC00;}
	.st3{fill:#234A8A;}
	.st4{fill:#333333;}
</style>
<g>
	<g>
		<defs>
			<polygon id="SVGID_1_" points="-41.5,-161.5 -40.5,-161.5 -41.5,-160.5 			"/>
		</defs>
		<clipPath id="SVGID_00000149340776476577231500000001805885088327719868_">
			<use xlink:href="#SVGID_1_"  style="overflow:visible;"/>
		</clipPath>
	</g>
</g>
<g transform="translate(0,0)">
	<g>
		<path class="st0" d="M74.2,69.2h130.5c2.9,0,5.3,2.4,5.3,5.3v125.9c0,2.9-2.4,5.3-5.3,5.3H74.2c-2.9,0-5.3-2.4-5.3-5.3V74.6
			C68.9,71.6,71.2,69.2,74.2,69.2z"/>
		<path class="st1" d="M210,137.5c0-10.3-3.3-20.2-9.5-28.4l-24.9-33.2c-2.1-2.8-6.4-2.8-8.5,0L149,100.2c-1.4,1.9-1.4,4.5,0,6.4
			l18.9,25.3c2.5,3.4,2.5,8,0,11.4L149,168.4c-1.4,1.9-1.4,4.5,0,6.4l18.2,24.3c2.1,2.8,6.4,2.8,8.5,0l24.9-33.2
			C206.7,157.7,210,147.8,210,137.5z"/>
		<path class="st2" d="M155.5,134.3l-11.8-15.7c-2.1-2.8-6.4-2.8-8.5,0l-11.8,15.7c-1.4,1.9-1.4,4.5,0,6.4l11.8,15.7
			c2.1,2.8,6.4,2.8,8.5,0l11.8-15.7C156.9,138.8,156.9,136.2,155.5,134.3z"/>
		<path class="st3" d="M109.1,137.5c0-2.1,0.7-4.1,1.9-5.7l40.5-54.1c2.6-3.5,0.1-8.5-4.3-8.5h-33.4c-3.6,0-7,1.7-9.1,4.5L78.3,109
			c-12.7,16.8-12.7,40,0,56.9l26.4,35.3c2.2,2.9,5.5,4.6,9.1,4.5h33.4c4.4,0,6.9-5,4.3-8.5l-40.5-54
			C109.8,141.6,109.1,139.6,109.1,137.5z"/>
	</g>
</g>
<g transform="translate(67,13.749275207519531)">
	<g transform="translate(0,0)">
		<g transform="scale(1)">
			<g>
				<path class="st4" d="M174.2,120c-0.7,0-1.4-0.3-1.9-0.8s-0.8-1.2-0.8-1.9l0,0V92.4V89h25.4l-1.3,3.5h-18.4v24.1h20.5l-1.3,3.5
					L174.2,120L174.2,120z M159.5,120l4.1-9.7v-4.1h5.8v4.6l-3.9,9.3h-6V120z M159.5,97.1h6l3.9,7.4h-6L159.5,97.1z M159.5,88.2h6
					l3.9,7.4h-6L159.5,88.2z M211.4,115.1l9.9-16.2H212v-3.5h10.3v-7.6h5.5v7.6h12l-1.3,3.5h-10.8l-1.7,2.7h5.1l9.4,13.5h-6.1
					l-8.8-12.7l-7.8,12.7C217.8,115.1,211.4,115.1,211.4,115.1z M201.3,99.5V96h8.7v17.2l-1.2,3.3h31.6l-1.3,3.5h-37l2.4-6.8V99.5
					H201.3z M202.3,87.8h5.7l2.8,6h-5.7L202.3,87.8z M248.3,120v-19.6h-4.7V97h4.7v-4.4h-4.1v-3.5h8.2l0.4-1.2h5.8l-1.4,4.7h-3.4V97
					h5.2l-1.3,3.5h-4V120H248.3z M243.5,120l0.7-17.8h3.6l-0.7,17.8H243.5z M254.2,102.2h3.6l0.7,17.8H255L254.2,102.2z M259.4,120
					v-3.5h5.9l-2.5-4.8h5.5l2.5,4.8h2.8l3.1-6.7h-17.3l1.9-5.6h5.5l-0.7,2.1h16v3.5l-4.7,10.2H259.4z M259.4,93.5l1.9-5.6h5.5
					l-0.7,2.1h16v3.5l-4.7,9.2h-17.9v-3.5h6.6L264,95h5.5l2.1,4.2h2.1l2.9-5.7H259.4z M287.4,120V88.5l5.6,0.1h29.8v9.8
					c0,0.7-0.3,1.3-0.8,1.9c-0.5,0.5-1.2,0.8-1.9,0.8l0,0h-7v4.8H324l-1.2,3.5h-7.9l9.4,10.6h-6.8l-9.4-10.6H293v6.4l10.8-1.1v3.6
					L287.4,120z M293.1,105.9h14.4v-4.8h-14.4V105.9z M293.1,97.6h24.2v-5.5h-24.2V97.6z M341.1,120v-12.7h24.1v10
					c0,0.8-0.2,1.4-0.7,1.9s-1.1,0.8-1.8,0.8l0,0C362.7,120,341.1,120,341.1,120z M328.3,101.2l5.2-13.4h5.5L335,98h2v22h-5.6v-18.8
					H328.3z M339.8,93.6v-3.5h10.1l-0.6-2.3h5.7l0.6,2.3H367l-1.2,3.5H339.8z M341.3,104.9v-3.5H365l-1.2,3.5H341.3z M341.3,99.3
					v-3.5H365l-1.2,3.5H341.3z M346.8,116.5h12.8v-5.8h-12.8V116.5z M374.2,108.7V90.2h8.8l1.1-2.2h6l-1.1,2.2h17.2V106
					c0,0.7-0.3,1.3-0.8,1.9c-0.5,0.5-1.1,0.8-1.9,0.8l0,0C403.5,108.7,374.2,108.7,374.2,108.7z M372.1,120l0.9-4.2v-5.4h5.5v5.4
					l-0.9,4.2H372.1z M379.9,105.2h20.8v-1.8h-20.8V105.2z M379.9,100.3h20.8v-1.8h-20.8V100.3z M379.9,95.4h20.8v-1.8h-20.8V95.4z
					 M381.6,117.4v-7.6h5.6v6.8h13.1l-1.3,3.5h-14.8c-0.7,0-1.4-0.3-1.9-0.8C381.9,118.7,381.6,118.1,381.6,117.4L381.6,117.4z
					 M391,113.6v-3.2h5.5v3.2l0.5,1.7h-5.5L391,113.6z M402,116v-5.6h5.5v5.6l0.9,4h-5.5L402,116z M424.3,105.2l9.6-8.6v-1.7h5.5
					v2.5l-1.5,1.4h6.1l7.1,6.4h-6.4l-6.9-6.2l-6.9,6.2C430.9,105.2,424.3,105.2,424.3,105.2z M414.1,105.2l4.8-8.5h5.8l-4.8,8.5
					H414.1z M415.6,88.8h5.8l3.3,6.2h-5.8L415.6,88.8z M415.7,119.9v-12.4h33.7v9.8c0,0.8-0.3,1.4-0.8,1.9s-1.1,0.8-1.9,0.8l0,0h-31
					V119.9z M421.4,116.4h22.4v-5.5h-22.4V116.4z M425.9,93.6l2-5.8h5.5l-0.8,2.3h17.9v3.5l-1.3,3.2h-5.5l1.3-3.2H425.9z M459.5,120
					V99.5h-3.9V96h9.6v18.8l2-0.5v3.6L459.5,120z M457.6,87.8h5.5l2.8,6h-5.5L457.6,87.8z M467.7,93.7l1.5-5.9h6.1l-0.6,2.4h19.4
					v25.7l-1.7,4.1h-6l2-4.9V93.7H467.7z M469.1,116.8V96.2h13.8h2.5v18c0,0.7-0.3,1.3-0.8,1.9c-0.5,0.5-1.2,0.8-1.9,0.8l0,0
					L469.1,116.8L469.1,116.8z M474.7,113.3h5.1v-5.5h-5.1V113.3z M474.7,104.4h5.1v-4.7h-5.1V104.4z M498.6,112.4V92.3h15.8v-4.5
					h5.8v4.5h15.9v17.5c0,0.8-0.3,1.4-0.8,1.9s-1.1,0.8-1.9,0.8l0,0h-13.2v7.6h-5.8v-7.6h-15.8V112.4z M504.3,109h10.1V95.8h-10.1
					L504.3,109L504.3,109z M520.2,109h10.2V95.8h-10.2V109z M556.8,120L556.8,120h-2.6c-0.7,0-1.4-0.3-1.9-0.8s-0.8-1.1-0.8-1.9l0,0
					V87.8h5.6v28.7h12.3l-1.3,3.5H556.8z M540.3,120l1.7-8.6V89.8h5.6v21.7l-1.7,8.6L540.3,120L540.3,120z M561.2,106.4V89.9h5.6
					v16.5l1.3,6.2h-5.6L561.2,106.4z M571.9,111.4V89.8h5.6v21.7l1.7,8.6h-5.6L571.9,111.4z"/>
			</g>
		</g>
	</g>
	<g transform="translate(5,19.68000030517578)">
		<rect x="166.3" y="126" class="st4" width="47.9" height="2.4"/>
		<rect x="514.4" y="126" class="st4" width="47.9" height="2.4"/>
		<g transform="translate(23.3699951171875,0)">
			<g transform="scale(1)">
				<path class="st4" d="M213.9,114.9L213.9,114.9c1.8,0.1,2.7,0.3,2.8,0.6l0,0c0,0,0,0.1-0.1,0.3l0,0c-0.3,0.3-0.5,0.5-0.5,0.8l0,0
					c-0.1,0.6-0.2,1.1-0.4,1.6l0,0h4.2c0.9,0,1.8-0.1,2.8-0.2l0,0v2.1c-0.4-0.1-1.2-0.1-2.4-0.1l0,0h-2.8c1.3,2.4,3.4,3.9,6.3,4.6
					l0,0c-0.8,0.7-1.3,1.4-1.4,2.3l0,0c-1-0.5-2.1-1.2-3.2-2.2l0,0v1.6c-0.7-0.1-1.6-0.2-2.7-0.2l0,0h-2.8c-1,0-1.7,0.1-2.3,0.2l0,0
					v-1.4c-0.5,0.4-1.2,1-2.1,1.6l0,0c-0.4,0.2-0.7,0.4-0.9,0.5l0,0c-0.5-0.9-1.2-1.4-2.1-1.6l0,0c1.4-0.4,2.7-1,4-2l0,0
					c1.2-1.1,2.2-2.3,2.8-3.5l0,0h-1.5c-1.1,0-2,0.1-2.7,0.2l0,0v-2.2c0.9,0.2,1.8,0.3,2.7,0.3l0,0h2.1
					C213.8,117.3,213.9,116.2,213.9,114.9z M199.8,116.6L199.8,116.6c0.9,0.2,2.1,0.2,3.7,0.2l0,0c1.9,0,3.3,0,4.2-0.1l0,0
					c-0.1,0.7-0.2,2-0.2,3.7l0,0c0,2,0.1,3.4,0.2,4.1l0,0c-1-0.2-1.9-0.3-2.8-0.2l0,0v4c1.5,0,2.5-0.1,3-0.2l0,0v2
					c-1-0.2-2-0.3-3-0.2l0,0v4.6c1-0.2,2.1-0.5,3.3-0.9l0,0c0.3-0.1,0.5-0.2,0.7-0.2l0,0l-0.2,2.4c-5.1,0.9-8.5,1.6-10,2.2l0,0
					l-0.8-2.3c0.2,0.1,0.5,0.1,1,0l0,0c0.3-0.1,0.5-0.1,0.7-0.1l0,0v-5.9c0-1,0-1.9-0.1-2.8l0,0c1.3-0.1,2.2,0,2.6,0.3l0,0
					c0,0,0,0-0.1,0.1l0,0c-0.4,0.4-0.6,0.9-0.6,1.4l0,0v6.4c0.4-0.1,1-0.2,1.8-0.3l0,0v-10.5c-1.2,0-2.3,0-3.4,0.1l0,0
					c0.1-0.5,0.2-1.8,0.2-4l0,0C200,118.6,199.9,117.3,199.8,116.6z M205.5,118.7h-3.6v3.8h3.6V118.7z M216,119.9L216,119.9h-1
					c-0.6,1.2-1.5,2.5-2.8,4.1l0,0c0.1-0.1,0,0-0.2,0.2l0,0c0.1,0,0.2,0,0.2,0l0,0c0.7,0.1,1.2,0.2,1.8,0.2l0,0h2.4
					c0.8,0,1.5-0.1,2-0.3l0,0C217.2,122.8,216.3,121.4,216,119.9z M222.2,127.9L222.2,127.9v2.2c-0.5-0.1-1.4-0.2-2.8-0.2l0,0h-5.7
					l-0.6,2.2h5.1c1.2,0,2.1,0,2.6-0.1l0,0c-0.1,0.4-0.2,0.9-0.3,1.8l0,0c-0.6,2.8-1,4.4-1.3,4.8l0,0c-0.6,0.7-2.2,1.2-4.8,1.3l0,0
					c0-1-0.4-1.9-1.1-2.5l0,0c1.9,0.3,3.2,0.3,4,0l0,0c0.5-0.9,0.9-2,1.2-3.4l0,0l-7.8,0.2c0.4-1.3,0.8-2.7,1.2-4.2l0,0
					c-1.3,0-2.4,0.1-3.2,0.2l0,0V128c0.8,0.1,1.9,0.2,3.2,0.2l0,0h7.6C220.6,128.1,221.5,128,222.2,127.9z M248.2,114.8l2.5-0.3
					c0,0,0.3,0.9,0.9,2.7l0,0h2.7c1.5-0.1,2.8-0.2,3.9-0.2l0,0v2.2c-1.2-0.1-2.4-0.2-3.8-0.2l0,0h-8.7c-1.5,0-2.5,0-3.2,0.1l0,0v-2
					c0.7,0.1,1.7,0.1,3.2,0.1l0,0h3.6C249.1,116.6,248.7,115.8,248.2,114.8L248.2,114.8z M236.7,114.6L236.7,114.6
					c1.9,0.1,2.8,0.3,2.8,0.7l0,0c0,0.1,0,0.2-0.1,0.2l0,0c-0.3,0.4-0.4,0.8-0.4,1.2l0,0v4.8h0.3c0.9,0,1.5,0,1.9-0.1l0,0v2.3
					c-0.3-0.1-0.9-0.1-1.8-0.1l0,0H239v8c0.9-0.2,1.9-0.5,3-1l0,0l-0.2,2.3c-2,0.8-4.5,1.6-7.5,2.4l0,0l-0.8-2.6
					c0.4-0.1,1.6-0.3,3.4-0.7l0,0v-8.4h-0.6c-0.3,0-0.7,0-1.3,0.1l0,0c-0.5,0-0.9,0-1.1,0l0,0v-2.3c0.5,0.1,1.3,0.1,2.3,0.1l0,0h0.5
					v-5.3C236.8,115.7,236.8,115.1,236.7,114.6z M252.5,119.1L252.5,119.1l2.3,0.8c0,0,0,0-0.1,0.1l0,0c-0.4,0.8-0.9,1.4-1.3,1.9
					l0,0h1.3c1.9,0,3.3-0.1,4.4-0.3l0,0v2.3c-1-0.1-2.4-0.2-4.2-0.2l0,0h-9.5c-1.9,0-3.1,0.1-3.5,0.2l0,0v-2.2
					c1.3,0.1,2.5,0.2,3.4,0.2l0,0h1.1c-0.4-0.7-0.9-1.4-1.4-2.1l0,0l2.4-0.4c0.4,0.7,0.9,1.5,1.3,2.5l0,0h2.7
					c0.1-0.1,0.1-0.3,0.2-0.5l0,0C251.8,121,252.1,120.2,252.5,119.1z M254.6,126.5h-9.5v2h9.5V126.5z M254.6,129.9h-9.5v1.9h9.5
					V129.9z M242.9,125L242.9,125c1.2,0.1,2.1,0.2,2.6,0.1l0,0h8.6c0.8,0,1.6,0,2.5-0.1l0,0c-0.1,0.7-0.1,1.4-0.1,1.9l0,0v4.3
					c0,1.2,0.1,2,0.2,2.3l0,0c-0.4-0.2-1.1-0.2-2.3-0.2l0,0h-2.1v3.5c0,0.3,0.3,0.5,0.8,0.6l0,0c0.1,0.1,0.2,0.1,0.2,0.1l0,0
					c1.1,0.1,2.1,0,2.9-0.2l0,0c0.4,0,0.7-0.7,0.9-2.2l0,0c0.7,0.7,1.5,1.1,2.4,1.4l0,0c-0.5,1.5-1.1,2.4-1.7,2.7l0,0
					c-1.5,0.4-3.5,0.4-6,0.2l0,0c-1.3-0.1-1.8-0.7-1.6-2l0,0v-4.1H248c0.1,3.7-2.4,5.9-7.6,6.6l0,0c-0.2-0.5-0.7-1.2-1.6-2.1l0,0
					c4.7-0.1,7.1-1.6,7.2-4.5l0,0h-1c-0.9,0-1.6,0.1-2.2,0.2l0,0c0.1-0.5,0.2-1.3,0.2-2.5l0,0v-4.2C243,126.2,243,125.6,242.9,125z
					 M281.1,115.1l2.8-0.5c0.4,0.7,0.7,1.8,1,3.4l0,0h6.5c1.5,0,2.4,0,2.6-0.1l0,0c0,0.1,0,0.4,0,0.8l0,0c-0.1,0.8-0.1,1.5-0.1,2
					l0,0c0,0.8,0.1,1.6,0.2,2.4l0,0c0,0.1,0,0.3,0,0.3l0,0h-2.9c0.1-0.9,0.2-2,0.2-3.4l0,0h-17.2c0,1.8,0.1,2.9,0.2,3.4l0,0h-2.8
					c0-0.1,0-0.2,0-0.4l0,0c0.2-0.8,0.2-1.6,0.2-2.4l0,0c0-1.4-0.1-2.3-0.2-2.8l0,0c1.3,0.1,2.3,0.2,3.2,0.2l0,0h7.4
					c0,0.1,0,0-0.1-0.3l0,0C281.8,116.7,281.4,115.9,281.1,115.1L281.1,115.1z M281.2,121.3L281.2,121.3c1.9,0.4,2.9,0.8,2.9,1l0,0
					c0,0.1-0.1,0.2-0.3,0.3l0,0c-0.2,0.2-0.4,0.4-0.5,0.7l0,0c-0.5,0.7-1.1,1.7-1.8,2.8l0,0h9.7c2,0,3.4-0.1,4.1-0.2l0,0v2.5
					c-0.7-0.1-2-0.2-4-0.2l0,0h-2c-0.8,2.4-1.7,4.2-2.8,5.6l0,0c2.9,1.1,5.5,2.2,7.8,3.4l0,0l-2.2,2.2c-1.9-1.6-4.3-2.9-7.2-4l0,0
					c-2.8,2-6.8,3.4-12.1,4.3l0,0c-0.3-0.8-0.9-1.7-1.9-2.5l0,0c5.1-0.2,9-1.1,11.8-2.8l0,0c-0.4-0.2-0.8-0.3-1.3-0.4l0,0
					c-2.1-0.8-4.2-1.4-6.2-1.8l0,0c1.3-1.9,2.2-3.3,2.7-4.1l0,0h-3.5c-1.5-0.1-2.8,0-3.9,0.2l0,0v-2.5c0.7,0.2,1.9,0.2,3.9,0.2l0,0
					h4.6c0-0.1,0-0.2,0.1-0.2l0,0C280.1,124,280.8,122.5,281.2,121.3z M286.9,128.2L286.9,128.2h-6.5l-2,3c2.3,0.6,4.2,1.2,5.9,1.8
					l0,0C285.4,131.6,286.2,130,286.9,128.2z M311.1,123.4V121c1.5,0.1,3.1,0.2,4.6,0.2l0,0h6.5c1.5,0,3.1-0.1,4.8-0.2l0,0v2.4
					c-1.6-0.1-3.2-0.2-4.8-0.2l0,0h-1.8c-0.3,0.2-0.8,0.5-1.4,1l0,0c-0.6,0.4-1,0.8-1.3,1l0,0c1.3,1.1,2.3,2.2,3.1,3.4l0,0
					c1.7-0.7,3.5-2.1,5.5-4.1l0,0c1.2,0.8,1.9,1.4,2.1,1.9l0,0c0,0.1-0.1,0.3-0.4,0.3l0,0c-0.4,0.1-0.7,0.2-1.1,0.5l0,0
					c-0.3,0.1-0.7,0.4-1.3,0.8l0,0c-0.3,0.2-0.5,0.4-0.7,0.4l0,0c0.8,3.6,3,5.9,6.7,6.9l0,0c-1.1,0.6-2,1.3-2.7,2.3l0,0
					c-3.2-2-5.2-4.8-6-8.4l0,0c-0.4,0.3-0.9,0.7-1.4,1.1l0,0c0.8,4,0.4,6.7-1.3,8l0,0c-1,0.7-2.5,1.1-4.3,1.2l0,0
					c-0.1-1.3-0.4-2.1-1-2.7l0,0c2.1,0.2,3.3,0.1,3.6-0.2l0,0c1-0.7,1.4-2.5,1.1-5.3l0,0c-2.9,2.8-6.8,5.1-11.5,6.9l0,0
					c-0.3-0.9-1-1.6-2-2.1l0,0c4.3-0.7,8.6-2.9,12.9-6.7l0,0c-0.4-0.6-0.7-1-0.9-1.3l0,0c-2.6,2.3-6,4.2-10.1,5.7l0,0
					c-0.4-0.9-0.9-1.6-1.8-2.1l0,0c3.7-0.4,7.3-2.1,10.8-4.9l0,0c-0.1-0.1-0.1-0.1-0.2-0.2l0,0c-0.2-0.4-0.5-0.6-0.8-0.8l0,0
					c-2.9,1.8-5.6,2.9-8.2,3.5l0,0c-0.3-0.8-0.8-1.5-1.6-2.1l0,0c3.8-0.4,7.5-1.8,11-4.4l0,0h-1.6
					C314,123.3,312.4,123.4,311.1,123.4L311.1,123.4z M317,114.9l3.1-0.4c0.4,1.5,0.6,2.5,0.7,3l0,0h6.5c1,0,2-0.1,3.2-0.3l0,0v2.2
					c0,1.2,0.1,2.1,0.2,2.8l0,0h-2.9c0.2-0.4,0.2-1.3,0.2-2.8l0,0h-18c0,1.1,0.1,2,0.2,2.8l0,0h-2.8c0.1-0.9,0.2-1.8,0.2-2.8l0,0
					v-2.2c0.7,0.1,1.7,0.2,3,0.2l0,0h7.6C317.9,116.4,317.5,115.5,317,114.9L317,114.9z M365.4,114.6L365.4,114.6
					c1.3-0.1,2.3,0,3.1,0.2l0,0c0,0,0,0.1-0.1,0.2l0,0c-0.4,0.4-0.5,0.7-0.5,1l0,0c0,0.9,0,2.1,0.1,3.7l0,0h3c1.2,0,2.2-0.1,3.2-0.2
					l0,0v2.2c-0.4-0.2-1.5-0.3-3.2-0.2l0,0h-3c0.2,2.9,0.6,5.9,1.4,9.1l0,0c0.8-1.8,1.4-3.9,1.8-6.4l0,0c2,0.5,2.9,0.9,2.9,1.1l0,0
					c0,0.1-0.1,0.2-0.2,0.3l0,0c-0.4,0.3-0.6,0.6-0.7,0.9l0,0c-0.8,2.6-1.7,4.8-2.8,6.7l0,0c0.8,2.1,1.6,3.4,2.5,3.8l0,0
					c0.4-0.5,0.6-1.4,0.6-2.9l0,0c0.6,0.7,1.3,1.2,2.3,1.4l0,0c-0.6,2.7-1.2,4.1-1.8,4.1l0,0c-1.5,0.4-3.2-1-5.2-4.2l0,0
					c-0.9,1.3-2.4,2.8-4.5,4.3l0,0c-0.5-0.7-1.3-1.2-2.2-1.6l0,0c2.4-1.2,4.3-2.9,5.7-5.1l0,0c-1-3.5-1.6-7.3-1.9-11.6l0,0h-6v3.6
					h2.3c1.1,0,2,0,2.5-0.1l0,0c0,0,0,0.3-0.1,1l0,0c-0.1,0.9-0.1,1.5-0.1,1.9l0,0c0,3.3-0.1,5.5-0.3,6.5l0,0
					c-0.2,0.7-1.4,1.2-3.6,1.5l0,0c0-0.1,0-0.1,0-0.2l0,0c-0.1-1.2-0.4-2-0.7-2.4l0,0c0.1,0,0.3,0,0.5,0.1l0,0
					c1.1,0.2,1.7,0.2,1.8-0.1l0,0c0.2-0.2,0.3-2.3,0.3-6.3l0,0H360c0,5.7-1,10-2.9,12.7l0,0c-0.8-0.3-1.7-0.6-2.6-0.8l0,0
					c2.3-2.6,3.4-6,3.4-10.1l0,0v-5.1c0-1.6-0.1-3.1-0.2-4.3l0,0c0.7,0.2,1.8,0.3,3.4,0.3l0,0h4.7
					C365.8,117.2,365.7,115.5,365.4,114.6z M369.7,116l1.9-0.9c0.7,1,1.3,1.9,1.6,2.8l0,0l-2,1c-0.1-0.5-0.5-1.3-1.2-2.4l0,0
					C369.9,116.3,369.8,116.1,369.7,116L369.7,116z M351.4,116.9l2.3-1.2c0.3,0.5,0.7,1.2,1.1,2l0,0c0.7,1.2,1.2,2.1,1.5,2.8l0,0
					l-2.4,1C353.2,119.8,352.4,118.2,351.4,116.9L351.4,116.9z M349.4,125.4v-2.1c0.4,0.2,1.2,0.2,2.2,0.2l0,0c1.7,0,2.7,0,3-0.1
					l0,0c-0.1,0.4-0.2,1.4-0.2,3l0,0v6.6c0.5-0.5,1.1-1.3,1.9-2.2l0,0c0.1,0.9,0.4,1.6,0.9,2.1l0,0c-1.6,1.5-2.9,2.8-3.7,4l0,0
					c-0.2-0.4-0.8-1-1.7-1.6l0,0c0.4-0.6,0.6-1.4,0.6-2.3l0,0v-7.7h-0.6C350.9,125.2,350.2,125.3,349.4,125.4L349.4,125.4z
					 M400.1,115.3l2.9-0.7c0.8,2.1,1.2,3.2,1.2,3.2l0,0l-2.9,0.7C401.1,117.4,400.6,116.4,400.1,115.3L400.1,115.3z M391.2,114.7
					L391.2,114.7c2.1,0.7,3.1,1.2,3,1.5l0,0c0,0.2-0.1,0.3-0.3,0.6l0,0c-0.3,0.2-0.5,0.4-0.5,0.5l0,0c-0.4,0.7-0.7,1.5-1.1,2.4l0,0
					c-0.1,0.2-0.2,0.4-0.2,0.4l0,0v15c0,2.2,0,3.7,0.1,4.5l0,0h-2.7c0.2-1.3,0.2-2.8,0.2-4.4l0,0v-10.8c-0.4,1-1.3,2.4-2.5,4.4l0,0
					l-1.6-2.2C388.1,123.6,390.1,119.6,391.2,114.7z M410.8,118.6L410.8,118.6v2.3c-1.2-0.1-2.6-0.2-4.3-0.2l0,0h-8.4
					c-1.5,0-3,0.1-4.3,0.2l0,0v-2.3c1.9,0.1,3.3,0.2,4.3,0.2l0,0h8.3C407.8,118.8,409.3,118.7,410.8,118.6z M409.3,122.7
					L409.3,122.7v2.1c-1-0.1-2.6-0.1-4.6-0.2l0,0h-5.6c-0.2,0-0.8,0-1.8,0l0,0c-1.3,0.1-2.2,0.1-2.5,0.1l0,0v-2.1
					c1.3,0.1,2.8,0.2,4.3,0.2l0,0h5.6C407,122.8,408.6,122.7,409.3,122.7z M394.8,128.3v-2.1c1.9,0.2,3.3,0.2,4.2,0.2l0,0h6
					c2.2,0,3.6,0,4.2-0.1l0,0v2.1c-1-0.1-2.4-0.2-4.2-0.2l0,0h-6C397,128.2,395.6,128.2,394.8,128.3L394.8,128.3z M397.5,132.4v3.5
					h9v-3.5H397.5z M409,130.5L409,130.5c-0.1,0.4-0.1,0.9-0.1,1.8l0,0v5.2c0,1,0,1.5,0.1,1.8l0,0h-2.5c0.1-0.4,0.1-0.9,0.1-1.8l0,0
					h-9c0,0.8,0,1.5,0.1,2.1l0,0h-2.4c0.1-0.1,0.1-0.8,0.1-2.1l0,0v-5.3c0-0.6,0-1.2-0.1-1.8l0,0c0.7,0.2,1.5,0.2,2.3,0.2l0,0h9
					c0.2,0,0.7,0,1.3-0.1l0,0C408.5,130.5,408.9,130.5,409,130.5z M427.4,114.5L427.4,114.5c2,0.5,3,0.9,3,1.1l0,0
					c0,0.1,0,0.2-0.1,0.2l0,0c-0.3,0.3-0.6,0.7-0.8,1.3l0,0c-0.2,0.5-0.5,1.2-0.9,2.1l0,0c-0.4,0.7-0.6,1.2-0.7,1.4l0,0V135
					c0,1.8,0.1,3.2,0.2,4.4l0,0c0,0.2,0,0.2,0,0.2l0,0h-2.8c0-0.1,0-0.2,0-0.3l0,0c0.1-1.2,0.2-2.6,0.2-4.3l0,0v-9.5
					c-0.6,1.3-1.4,2.6-2.3,4l0,0l-1.7-2C424.2,124.5,426.2,120.1,427.4,114.5z M430.5,118.8v-2.4c0,0,0.1,0,0.3,0l0,0
					c1.1,0.2,2.3,0.3,3.6,0.3l0,0h8.3c1.9,0,3.3-0.1,4.2-0.3l0,0c0.1,0,0.2,0,0.2,0l0,0v2.5c0,0-0.1,0-0.2,0l0,0
					c-1.2-0.2-2.6-0.3-4.3-0.3l0,0h-3.2v2.3h3.4c1.6,0,2.5-0.1,3-0.2l0,0c-0.2,0.2-0.2,1.2-0.2,2.9l0,0v4.8c0,1.3,0.1,2.2,0.2,2.5
					l0,0c-0.2-0.1-1.1-0.1-2.8-0.1l0,0h-3.8c-0.3,1.7-0.8,3.1-1.6,4.3l0,0c1.6,1.1,4.9,1.8,9.8,2l0,0c-0.7,0.5-1.2,1.4-1.6,2.8l0,0
					c-4-0.8-7.1-1.9-9.5-3.2l0,0c-1.3,1-3.3,2-6,3.2l0,0c-0.5-0.7-1.2-1.4-2.1-2.1l0,0c2.3-0.3,4.4-1.1,6.2-2.3l0,0
					c-0.3-0.2-1-0.9-2-2l0,0c-0.6-0.6-1-1-1.3-1.3l0,0l2.2-1.1c0.5,0.9,1.4,1.9,2.5,3.1l0,0c0.5-0.7,0.9-1.8,1.2-3.3l0,0h-3.2
					c-1.6,0-2.6,0.1-3,0.2l0,0c0.1-0.4,0.2-1.4,0.2-2.8l0,0v-4.6c0-1.6-0.1-2.5-0.2-2.9l0,0c0.5,0.1,1.6,0.2,3.2,0.2l0,0h3.2v-2.3
					h-2.9c-1.4,0-2.6,0.1-3.6,0.2l0,0C430.7,118.8,430.6,118.8,430.5,118.8L430.5,118.8z M437.3,122.6h-4.1v2.4h4.1V122.6z
					 M443.5,122.6h-4.1v2.4h4.1V122.6z M437.3,126.4h-4.1v2.5h4.1V126.4z M443.5,126.4h-4.1v2.5h4.1V126.4z M473.5,114.5
					L473.5,114.5c1.8,0,2.7,0.1,2.9,0.2l0,0c0,0,0,0.1-0.1,0.3l0,0c-0.2,0.2-0.3,0.4-0.4,0.7l0,0c-0.1,0.6-0.1,1.1-0.1,1.6l0,0h4.3
					c1.5,0,2.5,0,3.2-0.1l0,0v2c-0.5-0.1-1.5-0.1-3.2-0.1l0,0h-4.3v2.1h3.5c0.7,0,1.4,0,2.1-0.1l0,0c0,0,0,0.6-0.1,1.8l0,0v1.9
					c1.4,0,2.3,0,2.7-0.1l0,0v2.2c-0.4-0.2-1.3-0.2-2.7-0.2l0,0v1.9c0.1,1.3,0.1,1.9,0.1,1.9l0,0c-0.4-0.1-1.1-0.1-2.2-0.1l0,0h-3.4
					v2.3h3.2c1,0,1.9-0.1,3-0.2l0,0v2.1c-0.6-0.1-1.6-0.1-3-0.1l0,0h-3.2v3c2.7,0.1,5.3,0.1,7.8-0.2l0,0c-0.6,0.6-1,1.5-1.3,2.6l0,0
					c-4.3,0.1-7.4-0.3-9.2-1.1l0,0c-1.7-0.7-2.9-1.7-3.6-3.2l0,0c-0.8,1.6-1.7,3-2.8,4.4l0,0c-0.7-0.5-1.5-0.8-2.3-1l0,0
					c2.1-1.8,3.6-4.2,4.4-7.4l0,0c1.2,0.3,2.1,0.6,2.6,0.9l0,0c0,0.1-0.2,0.3-0.7,0.5l0,0c-0.2,0.3-0.3,0.5-0.3,0.7l0,0
					c0.5,1.6,1.6,2.8,3.3,3.4l0,0v-6.7H471c-1.6,0-2.7,0-3.2,0.1l0,0v-2.1c1.2,0.1,2.3,0.2,3.3,0.2l0,0h2.5v-1.9h-3.3
					c-1,0-2.1,0.1-3.1,0.2l0,0v-2.1c0.6,0.1,1.6,0.1,3.1,0.1l0,0h3.3V123h-2.2c-1.6,0-2.7,0-3.3,0.1l0,0v-2c0.9,0.1,2,0.1,3.3,0.1
					l0,0h2.2V119h-3.1c-1,0-2.1,0.1-3.3,0.2l0,0v-2.1c0.7,0.1,1.8,0.1,3.3,0.1l0,0h3.1C473.7,115.6,473.6,114.7,473.5,114.5z
					 M461.9,114.5L461.9,114.5c2-0.1,3.1,0,3.2,0.3l0,0c0,0.2-0.1,0.3-0.2,0.4l0,0c-0.3,0.4-0.5,1-0.6,1.6l0,0
					c-0.1,1.5-0.2,2.7-0.2,3.5l0,0c1.5,0,2.5,0,3-0.1l0,0v2.1c-0.6-0.1-1.6-0.1-3-0.1l0,0v4.8c0,0,0.1,0,0.2-0.1l0,0
					c0.8-0.3,1.6-0.7,2.3-1.2l0,0c-0.1,0.7,0,1.5,0.1,2.5l0,0c-0.7,0.1-1.5,0.4-2.6,1l0,0v8c-0.4,1.3-1.9,2.2-4.4,2.5l0,0
					c-0.1-1.1-0.5-2-1.1-2.8l0,0c2,0.3,3.1,0,3.4-0.8l0,0V130c-0.1,0.1-0.4,0.2-0.9,0.3l0,0c-1.5,0.7-2.5,1.3-3.1,1.6l0,0
					c0-0.7-0.1-1.6-0.4-2.7l0,0c1.6-0.4,3.1-0.8,4.4-1.3l0,0v-5.5h-1c-1.4,0-2.4,0-2.9,0.1l0,0v-2.1c0.4,0.1,1.3,0.1,2.9,0.1l0,0
					h1.1C462.2,117.8,462.1,115.7,461.9,114.5z M479.4,124.7v-1.9h-3.5v1.9H479.4z M479.3,126.5h-3.4v1.9h3.4V126.5z"/>
			</g>
		</g>
	</g>
</g>
</svg>
