<?xml version="1.0" encoding="utf-8"?>
<!-- Generator: Adobe Illustrator 27.4.0, SVG Export Plug-In . SVG Version: 6.00 Build 0)  -->
<svg version="1.1" id="Layer_1" xmlns="http://www.w3.org/2000/svg" xmlns:xlink="http://www.w3.org/1999/xlink" x="0px" y="0px"
	 viewBox="0 0 578 137" style="enable-background:new 0 0 578 137;" xml:space="preserve">
<style type="text/css">
	.st0{fill:#333333;fill-opacity:0;}
	.st1{fill:#B5D8F2;}
	.st2{fill:#FEDC00;}
	.st3{fill:#555BA8;}
	.st4{fill:#333333;}
</style>
<g transform="translate(47.33000183105469,95.99291229248047)">
	<g transform="translate(0,0)">
		<g>
			<rect x="-46.97" y="-95.74" class="st0" width="141.18" height="136.5"/>
			<path class="st1" d="M94.21-27.49c0-10.25-3.32-20.23-9.47-28.43L55.59-94.79L30.78-61.62l21.25,28.43c2.51,3.38,2.51,8,0,11.38
				L30.78,6.63L55.59,39.8L84.74,0.94C90.89-7.26,94.21-17.24,94.21-27.49z"/>
			<path class="st2" d="M42.08-27.49L23.6-52.06L5.11-27.49L23.6-2.92L42.08-27.49z"/>
			<path class="st3" d="M-6.75-27.49c0-2.05,0.67-4.05,1.91-5.69l46.92-62.56H-1.98c-3.58,0-6.95,1.68-9.1,4.55l-26.39,35.27
				c-12.65,16.84-12.65,40.02,0,56.87l26.37,35.27c2.15,2.87,5.53,4.55,9.12,4.55h44.06L-4.84-21.8
				C-6.08-23.44-6.75-25.44-6.75-27.49z"/>
		</g>
	</g>
	<g transform="translate(67,13.749275207519531)">
		<g transform="translate(0,0)">
			<g transform="scale(1)">
				<g>
					<path class="st4" d="M58.41-44.95c-0.74,0-1.36-0.26-1.88-0.78c-0.53-0.52-0.8-1.15-0.8-1.91l0,0v-24.92v-3.46h25.36
						l-1.27,3.46H61.38v24.09h20.54l-1.27,3.51H58.41z M43.68-44.95l4.14-9.74v-4.09h5.81v4.56l-3.91,9.27H43.68z M43.68-67.9h6.05
						l3.91,7.39h-6.02L43.68-67.9z M43.68-76.84h6.05l3.91,7.39h-6.02L43.68-76.84z M95.54-49.85l9.88-16.21h-9.29v-3.51h10.26
						v-7.58h5.48v7.58h11.95l-1.29,3.51h-10.82l-1.67,2.73h5.08l9.36,13.48h-6.09l-8.8-12.71l-7.76,12.71H95.54z M85.42-65.47v-3.48
						h8.68v17.2l-1.15,3.29h31.65l-1.29,3.51H86.27l2.35-6.8v-13.72H85.42z M86.43-77.14h5.72l2.82,6.02h-5.72L86.43-77.14z
						 M132.51-44.95v-19.58h-4.71v-3.51h4.71v-4.4h-4.07v-3.51h8.21l0.35-1.2h5.76l-1.36,4.71h-3.44v4.4h5.22l-1.27,3.51h-3.95
						v19.58H132.51z M127.71-44.95l0.71-17.81h3.62l-0.71,17.81H127.71z M138.41-62.77h3.6l0.71,17.81h-3.58L138.41-62.77z
						 M143.56-44.95v-3.51h5.93L147-53.28h5.51l2.47,4.82h2.75l3.11-6.68h-17.27l1.88-5.62h5.51l-0.71,2.12h16.05v3.51l-4.68,10.19
						H143.56z M143.56-71.54l1.88-5.6h5.51l-0.71,2.12h16.05v3.48l-4.68,9.2h-17.91v-3.51h6.56l-2.14-4.19h5.48l2.14,4.19h2.14
						l2.94-5.69H143.56z M171.59-44.95v-31.55l5.65,0.14h29.79v9.79c0,0.72-0.26,1.35-0.78,1.88c-0.52,0.53-1.15,0.8-1.91,0.8l0,0
						h-6.99v4.82h10.8l-1.25,3.51h-7.86l9.44,10.61h-6.75l-9.41-10.61h-15.08v6.38l10.82-1.06v3.65L171.59-44.95z M177.23-59.07
						h14.45v-4.82h-14.45V-59.07z M177.23-67.4h24.16v-5.48h-24.16V-67.4z M225.26-44.95v-12.73h24.09v10.05
						c0,0.75-0.24,1.39-0.71,1.91c-0.47,0.52-1.07,0.78-1.81,0.78l0,0H225.26z M212.43-63.75l5.22-13.39h5.46l-3.93,10.16h2.02
						v22.02h-5.62v-18.8H212.43z M223.96-71.35v-3.51h10.07l-0.56-2.28h5.72l0.56,2.28h11.44l-1.18,3.51H223.96z M225.45-60.08
						v-3.51h23.69l-1.15,3.51H225.45z M225.45-65.71v-3.48h23.69l-1.15,3.48H225.45z M230.93-48.46h12.78v-5.76h-12.78V-48.46z
						 M258.39-56.3v-18.52h8.85l1.08-2.21h6.02l-1.06,2.21h17.15v15.86c0,0.72-0.26,1.35-0.78,1.88c-0.52,0.52-1.14,0.78-1.86,0.78
						l0,0H258.39z M256.32-44.95l0.89-4.21v-5.39h5.51v5.39l-0.94,4.21H256.32z M264.03-59.78h20.75v-1.76h-20.75V-59.78z
						 M264.03-64.65h20.75v-1.79h-20.75V-64.65z M264.03-69.57h20.75v-1.76h-20.75V-69.57z M265.8-47.64v-7.62h5.65v6.8h13.11
						l-1.27,3.51h-14.82c-0.74,0-1.36-0.27-1.88-0.8C266.06-46.27,265.8-46.9,265.8-47.64L265.8-47.64z M275.21-51.35v-3.2h5.53v3.2
						l0.54,1.67h-5.51L275.21-51.35z M286.18-48.98v-5.58h5.51v5.58l0.94,4.02h-5.51L286.18-48.98z M308.43-59.8l9.58-8.59v-1.69
						h5.46v2.54l-1.53,1.39h6.07l7.06,6.35h-6.4l-6.89-6.21l-6.92,6.21H308.43z M298.32-59.8l4.78-8.52h5.81l-4.82,8.52H298.32z
						 M299.78-76.23h5.81l3.32,6.21h-5.81L299.78-76.23z M299.92-45.1v-12.45h33.69v9.76c0,0.75-0.26,1.39-0.78,1.91
						c-0.52,0.52-1.15,0.78-1.88,0.78l0,0H299.92z M305.54-48.6h22.45v-5.46h-22.45V-48.6z M310.06-71.35l1.98-5.79h5.46l-0.78,2.28
						h17.91v3.51l-1.27,3.18h-5.48l1.29-3.18H310.06z M343.66-44.95v-20.52h-3.91v-3.48h9.58v18.82l2.02-0.54v3.62L343.66-44.95z
						 M341.8-77.14h5.53l2.82,6.02h-5.53L341.8-77.14z M351.89-71.28l1.48-5.86h6.09l-0.59,2.38h19.44v25.72l-1.67,4.09h-5.95
						l1.98-4.87v-21.46H351.89z M353.31-48.18v-20.61h13.79h2.52v17.95c0,0.72-0.26,1.35-0.78,1.88c-0.53,0.52-1.16,0.78-1.88,0.78
						l0,0H353.31z M358.91-51.66h5.08v-5.46h-5.08V-51.66z M358.91-60.63h5.08v-4.68h-5.08V-60.63z M382.79-52.55v-20.12h15.79
						v-4.47h5.84v4.47h15.88v17.46c0,0.75-0.27,1.39-0.8,1.91c-0.5,0.5-1.12,0.75-1.86,0.75l0,0h-13.22v7.6h-5.84v-7.6H382.79z
						 M388.48-56.04h10.09v-13.13h-10.09V-56.04z M404.41-56.04h10.19v-13.13h-10.19V-56.04z M441-44.95V-45h-2.61
						c-0.74,0-1.36-0.26-1.88-0.78c-0.53-0.5-0.8-1.12-0.8-1.86l0,0v-29.51h5.65v28.68h12.26l-1.32,3.51H441z M424.51-45l1.67-8.56
						v-21.67h5.58v21.67L430.08-45H424.51z M445.38-58.58V-75.1h5.58v16.52l1.27,6.21h-5.6L445.38-58.58z M456.08-53.57v-21.67h5.55
						v21.67l1.67,8.56h-5.58L456.08-53.57z"/>
				</g>
			</g>
		</g>
		<g transform="translate(5,19.68000030517578)">
			<rect x="50.45" y="-38.94" class="st4" width="47.93" height="2.35"/>
			<rect x="398.61" y="-38.94" class="st4" width="47.93" height="2.35"/>
			<g transform="translate(23.3699951171875,0)">
				<g transform="scale(1)">
					<path class="st4" d="M98.06-50.06L98.06-50.06c1.76,0.14,2.67,0.33,2.75,0.56l0,0c0,0-0.04,0.11-0.12,0.33l0,0
						c-0.28,0.28-0.46,0.53-0.54,0.75l0,0c-0.08,0.6-0.23,1.11-0.45,1.55l0,0h4.19c0.89,0,1.82-0.07,2.78-0.21l0,0v2.09
						c-0.38-0.08-1.19-0.12-2.45-0.12l0,0h-2.75c1.33,2.35,3.43,3.9,6.28,4.64l0,0c-0.8,0.66-1.27,1.43-1.41,2.31l0,0
						c-1.04-0.5-2.1-1.23-3.2-2.19l0,0v1.65c-0.74-0.14-1.62-0.21-2.66-0.21l0,0h-2.75c-0.96,0-1.73,0.07-2.33,0.21l0,0v-1.44
						c-0.5,0.44-1.2,0.96-2.09,1.55l0,0c-0.44,0.22-0.73,0.4-0.87,0.54l0,0c-0.52-0.88-1.22-1.43-2.09-1.65l0,0
						c1.4-0.38,2.72-1.04,3.98-2l0,0c1.24-1.1,2.19-2.27,2.85-3.53l0,0h-1.53c-1.1,0-1.98,0.08-2.66,0.24l0,0v-2.21
						c0.89,0.22,1.78,0.33,2.66,0.33l0,0h2.09C97.95-47.74,98.06-48.8,98.06-50.06z M83.94-48.41L83.94-48.41
						c0.88,0.16,2.13,0.24,3.74,0.24l0,0c1.91,0,3.31-0.04,4.19-0.12l0,0c-0.14,0.74-0.21,1.98-0.21,3.74l0,0
						c0,1.99,0.07,3.36,0.21,4.09l0,0c-1.02-0.22-1.94-0.29-2.75-0.21l0,0v3.95c1.47,0,2.47-0.07,2.99-0.21l0,0v1.98
						c-0.96-0.22-1.95-0.29-2.99-0.21l0,0v4.64c0.96-0.22,2.06-0.52,3.32-0.89l0,0c0.3-0.14,0.52-0.21,0.66-0.21l0,0l-0.21,2.42
						c-5.15,0.88-8.49,1.62-10.05,2.21l0,0l-0.78-2.33c0.22,0.08,0.55,0.08,0.99,0l0,0c0.3-0.06,0.53-0.09,0.68-0.09l0,0v-5.86
						c0-0.96-0.04-1.87-0.12-2.75l0,0c1.32-0.08,2.2,0.03,2.64,0.33l0,0c0,0-0.03,0.04-0.09,0.12l0,0
						c-0.38,0.44-0.56,0.92-0.56,1.44l0,0v6.4c0.44-0.08,1.03-0.19,1.76-0.33l0,0v-10.49c-1.18,0-2.31,0.04-3.41,0.12l0,0
						c0.14-0.52,0.21-1.84,0.21-3.98l0,0C84.15-46.35,84.08-47.67,83.94-48.41z M89.68-46.32h-3.65v3.76h3.65V-46.32z M100.15-45.09
						L100.15-45.09h-0.99c-0.6,1.18-1.51,2.53-2.75,4.07l0,0c0.06-0.06-0.02,0.02-0.24,0.24l0,0c0.08,0,0.16,0,0.24,0l0,0
						c0.66,0.14,1.25,0.21,1.76,0.21l0,0h2.42c0.8,0,1.46-0.11,1.98-0.33l0,0C101.32-42.16,100.51-43.55,100.15-45.09z
						 M106.34-37.14L106.34-37.14v2.19c-0.52-0.14-1.44-0.21-2.78-0.21l0,0h-5.72l-0.56,2.21h5.08c1.18,0,2.05-0.04,2.64-0.12l0,0
						c-0.06,0.36-0.17,0.95-0.33,1.76l0,0c-0.58,2.79-1.02,4.38-1.32,4.75l0,0c-0.6,0.72-2.21,1.16-4.85,1.32l0,0
						c0-1.04-0.37-1.88-1.11-2.54l0,0c1.91,0.3,3.24,0.3,3.98,0l0,0c0.5-0.88,0.9-2.02,1.2-3.41l0,0l-7.84,0.21
						c0.44-1.32,0.85-2.71,1.22-4.19l0,0c-1.32,0-2.38,0.07-3.2,0.21l0,0v-2.19c0.82,0.14,1.88,0.21,3.2,0.21l0,0h7.6
						C104.74-36.93,105.67-37,106.34-37.14z M132.36-50.17l2.54-0.33c0,0,0.29,0.89,0.87,2.66l0,0h2.66
						c1.54-0.08,2.82-0.16,3.86-0.24l0,0v2.21c-1.18-0.14-2.43-0.21-3.76-0.21l0,0h-8.71c-1.47,0-2.54,0.04-3.2,0.12l0,0v-2
						c0.66,0.08,1.73,0.12,3.2,0.12l0,0h3.65C133.25-48.44,132.88-49.22,132.36-50.17L132.36-50.17z M120.88-50.39L120.88-50.39
						c1.91,0.08,2.83,0.3,2.75,0.66l0,0c0,0.08-0.03,0.16-0.09,0.24l0,0c-0.3,0.44-0.45,0.84-0.45,1.2l0,0v4.85h0.33
						c0.88,0,1.51-0.03,1.88-0.09l0,0v2.31c-0.3-0.08-0.89-0.12-1.76-0.12l0,0h-0.33v7.95c0.88-0.22,1.87-0.55,2.96-0.99l0,0
						l-0.21,2.31c-1.99,0.82-4.49,1.62-7.51,2.42l0,0l-0.78-2.64c0.44-0.08,1.58-0.3,3.44-0.66l0,0v-8.4h-0.56
						c-0.3,0-0.74,0.04-1.32,0.12l0,0c-0.52,0-0.89,0-1.11,0l0,0v-2.31c0.52,0.06,1.29,0.09,2.33,0.09l0,0H121v-5.29
						C121-49.32,120.96-49.87,120.88-50.39z M136.67-45.87L136.67-45.87l2.31,0.78c0,0-0.04,0.04-0.12,0.12l0,0
						c-0.44,0.8-0.88,1.42-1.32,1.86l0,0h1.32c1.85,0,3.33-0.11,4.42-0.33l0,0v2.33c-0.96-0.08-2.35-0.16-4.19-0.24l0,0h-9.48
						c-1.91,0-3.09,0.08-3.53,0.24l0,0v-2.21c1.32,0.14,2.45,0.21,3.41,0.21l0,0h1.11c-0.38-0.72-0.85-1.42-1.44-2.09l0,0l2.42-0.42
						c0.44,0.66,0.88,1.5,1.32,2.52l0,0h2.66c0.06-0.14,0.13-0.32,0.21-0.54l0,0C136-44.02,136.29-44.75,136.67-45.87z
						 M138.76-38.48h-9.48v2h9.48V-38.48z M138.76-35.04h-9.48v1.86h9.48V-35.04z M127.07-40.01L127.07-40.01
						c1.18,0.14,2.05,0.17,2.64,0.09l0,0h8.61c0.8,0,1.65-0.03,2.54-0.09l0,0c-0.08,0.74-0.12,1.36-0.12,1.86l0,0v4.31
						c0,1.18,0.07,1.95,0.21,2.33l0,0c-0.36-0.16-1.13-0.24-2.31-0.24l0,0h-2.09v3.53c0,0.3,0.26,0.49,0.78,0.56l0,0
						c0.14,0.06,0.21,0.09,0.21,0.09l0,0c1.1,0.08,2.05,0.01,2.87-0.21l0,0c0.36,0,0.65-0.74,0.87-2.21l0,0
						c0.67,0.66,1.49,1.14,2.45,1.44l0,0c-0.52,1.47-1.07,2.36-1.67,2.66l0,0c-1.54,0.36-3.52,0.43-5.95,0.21l0,0
						c-1.25-0.08-1.8-0.74-1.65-1.98l0,0v-4.09h-2.21c0.14,3.69-2.39,5.9-7.6,6.64l0,0c-0.16-0.52-0.67-1.22-1.55-2.12l0,0
						c4.71-0.14,7.1-1.65,7.18-4.52l0,0h-1.11c-0.88,0-1.62,0.08-2.21,0.24l0,0c0.14-0.45,0.21-1.3,0.21-2.54l0,0v-4.19
						C127.16-38.76,127.13-39.35,127.07-40.01z M165.24-49.84l2.75-0.54c0.36,0.66,0.69,1.8,0.99,3.41l0,0h6.52
						c1.54,0,2.42-0.03,2.64-0.09l0,0c0,0.14,0,0.39,0,0.75l0,0c-0.08,0.82-0.12,1.48-0.12,2l0,0c0,0.8,0.08,1.61,0.24,2.42l0,0
						c0,0.14,0,0.25,0,0.33l0,0h-2.87c0.14-0.88,0.21-2.02,0.21-3.41l0,0h-17.2c0,1.76,0.07,2.89,0.21,3.41l0,0h-2.75
						c0-0.08,0-0.23,0-0.45l0,0c0.16-0.8,0.24-1.61,0.24-2.42l0,0c0-1.4-0.08-2.31-0.24-2.75l0,0c1.25,0.14,2.32,0.21,3.2,0.21l0,0
						h7.39c0,0.08-0.03-0.03-0.09-0.33l0,0C165.96-48.26,165.6-49.11,165.24-49.84L165.24-49.84z M165.33-43.66L165.33-43.66
						c1.91,0.44,2.87,0.77,2.87,0.99l0,0c0,0.08-0.11,0.19-0.33,0.33l0,0c-0.22,0.22-0.4,0.44-0.54,0.66l0,0
						c-0.52,0.74-1.11,1.66-1.76,2.78l0,0h9.69c1.99,0,3.36-0.08,4.09-0.24l0,0v2.54c-0.67-0.14-2-0.21-3.98-0.21l0,0h-1.98
						c-0.82,2.35-1.74,4.23-2.78,5.62l0,0c2.87,1.1,5.48,2.24,7.84,3.41l0,0l-2.21,2.21c-1.9-1.55-4.28-2.88-7.15-3.98l0,0
						c-2.79,1.99-6.84,3.43-12.14,4.31l0,0c-0.3-0.82-0.93-1.66-1.88-2.54l0,0c5.08-0.22,9.02-1.14,11.81-2.75l0,0
						c-0.36-0.16-0.8-0.31-1.32-0.45l0,0c-2.13-0.82-4.2-1.4-6.19-1.76l0,0c1.33-1.91,2.22-3.27,2.66-4.07l0,0h-3.53
						c-1.47-0.08-2.76-0.01-3.86,0.21l0,0v-2.54c0.66,0.16,1.95,0.24,3.86,0.24l0,0h4.64c0-0.08,0.03-0.16,0.09-0.24l0,0
						C164.27-40.97,164.97-42.48,165.33-43.66z M171.07-36.81L171.07-36.81h-6.49l-2,2.96c2.27,0.6,4.23,1.18,5.86,1.76l0,0
						C169.53-33.4,170.41-34.97,171.07-36.81z M195.24-41.56v-2.42c1.54,0.14,3.08,0.21,4.64,0.21l0,0h6.49
						c1.47,0,3.09-0.07,4.85-0.21l0,0v2.42c-1.62-0.14-3.23-0.21-4.85-0.21l0,0h-1.76c-0.3,0.22-0.78,0.55-1.44,0.99l0,0
						c-0.58,0.44-1.02,0.77-1.32,0.99l0,0c1.32,1.1,2.35,2.24,3.08,3.41l0,0c1.69-0.74,3.54-2.09,5.53-4.07l0,0
						c1.18,0.8,1.87,1.43,2.09,1.88l0,0c0,0.14-0.15,0.25-0.45,0.33l0,0c-0.38,0.06-0.75,0.24-1.11,0.54l0,0
						c-0.3,0.14-0.74,0.4-1.32,0.78l0,0c-0.3,0.22-0.52,0.37-0.66,0.45l0,0c0.8,3.59,3.04,5.91,6.73,6.94l0,0
						c-1.11,0.58-2,1.35-2.66,2.31l0,0c-3.23-1.98-5.22-4.77-5.95-8.38l0,0c-0.44,0.3-0.92,0.67-1.44,1.11l0,0
						c0.82,4.05,0.38,6.73-1.32,8.05l0,0c-1.04,0.74-2.47,1.15-4.31,1.22l0,0c-0.08-1.25-0.41-2.14-0.99-2.66l0,0
						c2.05,0.16,3.26,0.09,3.62-0.21l0,0c1.04-0.74,1.4-2.5,1.11-5.29l0,0c-2.93,2.79-6.75,5.11-11.46,6.94l0,0
						c-0.3-0.88-0.96-1.58-2-2.09l0,0c4.27-0.66,8.57-2.9,12.92-6.73l0,0c-0.38-0.58-0.67-1.02-0.89-1.32l0,0
						c-2.57,2.27-5.95,4.19-10.14,5.74l0,0c-0.36-0.89-0.95-1.59-1.76-2.09l0,0c3.67-0.44,7.27-2.06,10.8-4.87l0,0
						c-0.06-0.06-0.13-0.13-0.21-0.21l0,0c-0.22-0.36-0.48-0.62-0.78-0.78l0,0c-2.87,1.77-5.59,2.95-8.16,3.53l0,0
						c-0.28-0.8-0.83-1.5-1.65-2.09l0,0c3.83-0.36,7.51-1.83,11.04-4.4l0,0h-1.55C198.13-41.71,196.55-41.64,195.24-41.56
						L195.24-41.56z M201.19-50.06l3.08-0.45c0.36,1.47,0.58,2.47,0.66,2.99l0,0h6.52c0.96,0,2.02-0.11,3.2-0.33l0,0v2.21
						c0,1.18,0.07,2.09,0.21,2.75l0,0h-2.87c0.16-0.38,0.24-1.29,0.24-2.75l0,0h-18c0,1.1,0.08,2.05,0.24,2.85l0,0h-2.75
						c0.14-0.88,0.21-1.8,0.21-2.75l0,0v-2.19c0.74,0.14,1.73,0.21,2.99,0.21l0,0h7.6C202.07-48.61,201.63-49.46,201.19-50.06
						L201.19-50.06z M249.61-50.39L249.61-50.39c1.32-0.08,2.35-0.01,3.08,0.21l0,0c0,0-0.04,0.08-0.12,0.24l0,0
						c-0.36,0.36-0.54,0.69-0.54,0.99l0,0c0,0.88,0.03,2.13,0.09,3.74l0,0h2.99c1.18,0,2.24-0.07,3.2-0.21l0,0v2.21
						c-0.44-0.22-1.51-0.3-3.2-0.24l0,0h-2.99c0.16,2.87,0.64,5.89,1.44,9.06l0,0c0.82-1.77,1.4-3.91,1.76-6.4l0,0
						c1.99,0.52,2.95,0.89,2.87,1.11l0,0c0,0.06-0.07,0.17-0.21,0.33l0,0c-0.38,0.3-0.6,0.59-0.66,0.87l0,0
						c-0.82,2.57-1.73,4.82-2.75,6.73l0,0c0.8,2.13,1.64,3.39,2.52,3.76l0,0c0.44-0.45,0.63-1.41,0.56-2.87l0,0
						c0.58,0.74,1.35,1.22,2.31,1.44l0,0c-0.58,2.71-1.17,4.07-1.76,4.07l0,0c-1.47,0.38-3.2-1.02-5.18-4.19l0,0
						c-0.88,1.32-2.38,2.75-4.52,4.31l0,0c-0.52-0.66-1.25-1.18-2.21-1.55l0,0c2.43-1.18,4.35-2.86,5.74-5.06l0,0
						c-0.96-3.47-1.58-7.33-1.88-11.6l0,0h-5.95v3.65h2.31c1.11,0,1.96-0.04,2.54-0.12l0,0c0,0-0.04,0.34-0.12,1.01l0,0
						c-0.06,0.88-0.09,1.5-0.09,1.86l0,0c0,3.31-0.11,5.48-0.33,6.52l0,0c-0.22,0.74-1.44,1.25-3.65,1.53l0,0c0-0.06,0-0.13,0-0.21
						l0,0c-0.14-1.18-0.36-1.98-0.66-2.42l0,0c0.14,0,0.32,0.04,0.54,0.12l0,0c1.11,0.22,1.7,0.18,1.76-0.12l0,0
						c0.22-0.22,0.33-2.31,0.33-6.28l0,0h-2.64c0,5.73-0.96,9.95-2.87,12.68l0,0c-0.82-0.3-1.69-0.56-2.64-0.78l0,0
						c2.27-2.57,3.41-5.95,3.41-10.14l0,0v-5.08c0-1.62-0.08-3.05-0.24-4.31l0,0c0.67,0.22,1.82,0.33,3.44,0.33l0,0h4.73
						C249.97-47.78,249.83-49.51,249.61-50.39z M253.89-48.95l1.88-0.89c0.74,0.96,1.29,1.88,1.65,2.78l0,0l-1.98,0.99
						c-0.14-0.52-0.55-1.33-1.22-2.42l0,0C254.08-48.72,253.97-48.87,253.89-48.95L253.89-48.95z M235.59-48.08l2.33-1.2
						c0.28,0.52,0.65,1.18,1.11,1.98l0,0c0.72,1.18,1.23,2.09,1.53,2.75l0,0l-2.42,1.01C237.39-45.23,236.55-46.75,235.59-48.08
						L235.59-48.08z M233.61-39.59v-2.09c0.44,0.16,1.18,0.24,2.21,0.24l0,0c1.68,0,2.67-0.04,2.96-0.12l0,0
						c-0.14,0.44-0.21,1.44-0.21,2.99l0,0v6.61c0.52-0.52,1.15-1.25,1.88-2.21l0,0c0.14,0.88,0.43,1.58,0.87,2.09l0,0
						c-1.62,1.47-2.86,2.8-3.74,3.98l0,0c-0.22-0.44-0.78-0.99-1.67-1.65l0,0c0.38-0.6,0.56-1.37,0.56-2.33l0,0v-7.72h-0.56
						C235.12-39.8,234.35-39.73,233.61-39.59L233.61-39.59z M284.22-49.73l2.87-0.66c0.82,2.13,1.22,3.2,1.22,3.2l0,0l-2.87,0.66
						C285.23-47.56,284.82-48.63,284.22-49.73L284.22-49.73z M275.4-50.27L275.4-50.27c2.07,0.74,3.07,1.25,2.99,1.53l0,0
						c0,0.16-0.11,0.35-0.33,0.56l0,0c-0.3,0.22-0.48,0.4-0.54,0.54l0,0c-0.38,0.66-0.75,1.47-1.11,2.42l0,0
						c-0.08,0.22-0.16,0.37-0.24,0.45l0,0v15.01c0,2.2,0.04,3.7,0.12,4.52l0,0h-2.66c0.16-1.33,0.24-2.81,0.24-4.42l0,0v-10.8
						c-0.44,0.96-1.29,2.42-2.54,4.4l0,0l-1.65-2.19C272.32-41.41,274.22-45.42,275.4-50.27z M294.93-46.41L294.93-46.41v2.31
						c-1.18-0.14-2.61-0.21-4.31-0.21l0,0h-8.38c-1.54,0-2.97,0.07-4.31,0.21l0,0v-2.31c1.91,0.14,3.35,0.21,4.31,0.21l0,0h8.28
						C291.99-46.2,293.45-46.27,294.93-46.41z M293.49-42.34L293.49-42.34v2.09c-1.02-0.06-2.56-0.13-4.64-0.21l0,0h-5.62
						c-0.22,0-0.81,0-1.76,0l0,0c-1.32,0.08-2.16,0.12-2.54,0.12l0,0v-2.09c1.33,0.14,2.77,0.21,4.31,0.21l0,0h5.62
						C291.21-42.22,292.76-42.26,293.49-42.34z M278.93-36.72v-2.09c1.91,0.16,3.32,0.24,4.21,0.24l0,0h6.05
						c2.21,0,3.62-0.04,4.21-0.12l0,0v2.09c-0.96-0.14-2.36-0.21-4.21-0.21l0,0h-6.05C281.15-36.81,279.75-36.78,278.93-36.72
						L278.93-36.72z M281.71-32.62v3.53h9.04v-3.53H281.71z M293.16-34.5L293.16-34.5c-0.08,0.36-0.12,0.95-0.12,1.76l0,0v5.18
						c0,0.96,0.04,1.55,0.12,1.76l0,0h-2.54c0.08-0.36,0.12-0.95,0.12-1.76l0,0h-9.04c0,0.82,0.03,1.51,0.09,2.09l0,0h-2.42
						c0.08-0.14,0.12-0.84,0.12-2.09l0,0v-5.29c0-0.58-0.04-1.17-0.12-1.76l0,0c0.74,0.16,1.51,0.24,2.33,0.24l0,0h9.04
						c0.22,0,0.66-0.04,1.32-0.12l0,0C292.65-34.5,293.02-34.5,293.16-34.5z M311.59-50.5L311.59-50.5
						c1.99,0.52,2.99,0.89,2.99,1.11l0,0c0,0.08-0.04,0.16-0.12,0.24l0,0c-0.3,0.28-0.56,0.72-0.78,1.32l0,0
						c-0.22,0.52-0.51,1.22-0.87,2.09l0,0c-0.38,0.74-0.6,1.22-0.68,1.44l0,0v14.45c0,1.76,0.08,3.22,0.24,4.4l0,0
						c0,0.16,0,0.24,0,0.24l0,0h-2.75c0-0.08,0-0.19,0-0.33l0,0c0.14-1.18,0.21-2.61,0.21-4.31l0,0v-9.48
						c-0.6,1.32-1.36,2.64-2.31,3.98l0,0l-1.67-2C308.42-40.53,310.33-44.9,311.59-50.5z M314.67-46.2v-2.42c0,0,0.11,0,0.33,0l0,0
						c1.11,0.22,2.33,0.33,3.65,0.33l0,0h8.28c1.9,0,3.29-0.11,4.19-0.33l0,0c0.14,0,0.21,0,0.21,0l0,0v2.54c0,0-0.07,0-0.21,0l0,0
						c-1.18-0.22-2.61-0.33-4.31-0.33l0,0h-3.2v2.31h3.41c1.55,0,2.55-0.07,2.99-0.21l0,0c-0.16,0.22-0.24,1.18-0.24,2.87l0,0v4.85
						c0,1.32,0.08,2.16,0.24,2.54l0,0c-0.22-0.08-1.14-0.12-2.75-0.12l0,0h-3.76c-0.3,1.69-0.85,3.13-1.65,4.31l0,0
						c1.62,1.1,4.89,1.76,9.81,1.98l0,0c-0.66,0.52-1.21,1.44-1.65,2.78l0,0c-3.97-0.82-7.13-1.88-9.48-3.2l0,0
						c-1.33,0.96-3.32,2.02-5.95,3.2l0,0c-0.52-0.74-1.22-1.44-2.12-2.12l0,0c2.29-0.28,4.35-1.05,6.19-2.31l0,0
						c-0.3-0.22-0.96-0.88-1.98-1.98l0,0c-0.6-0.6-1.04-1.04-1.34-1.34l0,0l2.21-1.11c0.52,0.89,1.36,1.93,2.54,3.11l0,0
						c0.52-0.74,0.92-1.84,1.2-3.32l0,0h-3.18c-1.63,0-2.63,0.07-2.99,0.21l0,0c0.14-0.44,0.21-1.39,0.21-2.85l0,0v-4.64
						c0-1.55-0.07-2.51-0.21-2.87l0,0c0.52,0.14,1.58,0.21,3.2,0.21l0,0h3.2v-2.31h-2.87c-1.4,0-2.61,0.07-3.65,0.21l0,0
						C314.86-46.2,314.75-46.2,314.67-46.2L314.67-46.2z M321.52-42.43h-4.09v2.42h4.09V-42.43z M327.68-42.43h-4.07v2.42h4.07
						V-42.43z M321.52-38.57h-4.09v2.52h4.09V-38.57z M327.68-38.57h-4.07v2.52h4.07V-38.57z M357.68-50.5L357.68-50.5
						c1.77,0,2.73,0.08,2.87,0.24l0,0c0,0-0.03,0.11-0.09,0.33l0,0c-0.16,0.22-0.27,0.44-0.35,0.66l0,0
						c-0.06,0.58-0.09,1.1-0.09,1.55l0,0h4.31c1.46,0,2.53-0.04,3.2-0.12l0,0v1.98c-0.45-0.06-1.52-0.09-3.2-0.09l0,0h-4.31v2.09
						h3.53c0.74,0,1.44-0.04,2.09-0.12l0,0c0,0-0.04,0.59-0.12,1.76l0,0v1.88c1.4,0,2.28-0.04,2.66-0.12l0,0v2.21
						c-0.38-0.16-1.26-0.24-2.66-0.24l0,0v1.88c0.08,1.25,0.12,1.88,0.12,1.88l0,0c-0.38-0.08-1.11-0.12-2.21-0.12l0,0h-3.41v2.31
						h3.2c0.96,0,1.95-0.07,2.96-0.21l0,0v2.09c-0.58-0.08-1.57-0.12-2.96-0.12l0,0h-3.2v2.99c2.65,0.14,5.26,0.07,7.84-0.21l0,0
						c-0.6,0.58-1.04,1.46-1.34,2.64l0,0c-4.33,0.08-7.41-0.29-9.25-1.11l0,0c-1.69-0.66-2.91-1.73-3.65-3.2l0,0
						c-0.82,1.55-1.73,3.03-2.75,4.42l0,0c-0.74-0.52-1.51-0.85-2.33-0.99l0,0c2.13-1.77,3.61-4.24,4.42-7.39l0,0
						c1.24,0.28,2.12,0.57,2.64,0.87l0,0c0,0.08-0.22,0.26-0.66,0.54l0,0c-0.22,0.3-0.33,0.53-0.33,0.68l0,0
						c0.52,1.62,1.62,2.75,3.32,3.41l0,0v-6.73h-2.66c-1.62,0-2.68,0.04-3.2,0.12l0,0v-2.09c1.18,0.14,2.28,0.21,3.32,0.21l0,0h2.54
						v-1.88h-3.32c-1.04,0-2.06,0.08-3.08,0.24l0,0v-2.09c0.58,0.06,1.61,0.09,3.08,0.09l0,0h3.32v-1.86h-2.21
						c-1.62,0-2.72,0.03-3.32,0.09l0,0v-1.98c0.89,0.08,2,0.12,3.32,0.12l0,0h2.21v-2.09h-3.11c-1.02,0-2.12,0.07-3.29,0.21l0,0
						v-2.09c0.66,0.08,1.76,0.12,3.29,0.12l0,0h3.11C357.84-49.36,357.76-50.28,357.68-50.5z M346.11-50.5L346.11-50.5
						c1.99-0.06,3.06,0.05,3.2,0.33l0,0c0,0.16-0.07,0.31-0.21,0.45l0,0c-0.3,0.44-0.49,0.99-0.56,1.65l0,0
						c-0.14,1.47-0.21,2.65-0.21,3.53l0,0c1.54,0,2.53-0.03,2.96-0.09l0,0v2.09c-0.58-0.08-1.57-0.12-2.96-0.12l0,0v4.85
						c0,0,0.07-0.03,0.21-0.09l0,0c0.82-0.3,1.59-0.71,2.33-1.22l0,0c-0.08,0.66-0.05,1.51,0.09,2.54l0,0
						c-0.66,0.08-1.54,0.41-2.64,0.99l0,0v8.05c-0.44,1.33-1.91,2.18-4.42,2.54l0,0c-0.14-1.1-0.5-2.02-1.08-2.75l0,0
						c1.98,0.3,3.11,0.04,3.41-0.78l0,0v-6.4c-0.08,0.08-0.38,0.19-0.89,0.33l0,0c-1.46,0.74-2.49,1.25-3.08,1.55l0,0
						c0-0.74-0.15-1.62-0.45-2.66l0,0c1.62-0.36,3.09-0.8,4.42-1.32l0,0v-5.51h-0.99c-1.4,0-2.35,0.04-2.87,0.12l0,0v-2.12
						c0.36,0.08,1.32,0.12,2.87,0.12l0,0h1.11C346.34-47.23,346.26-49.25,346.11-50.5z M363.54-40.24v-1.86h-3.53v1.86H363.54z
						 M363.42-38.48h-3.41v1.88h3.41V-38.48z"/>
				</g>
			</g>
		</g>
	</g>
</g>
</svg>
