<?xml version="1.0" encoding="utf-8"?>
<!-- Generator: Adobe Illustrator 27.7.0, SVG Export Plug-In . SVG Version: 6.00 Build 0)  -->
<svg version="1.1" id="Layer_1" xmlns="http://www.w3.org/2000/svg" xmlns:xlink="http://www.w3.org/1999/xlink" x="0px" y="0px"
	 viewBox="0 0 581 140" style="enable-background:new 0 0 581 140;" xml:space="preserve">
<style type="text/css">
	.st0{fill:#333333;fill-opacity:0;}
	.st1{fill:#B1D9FE;}
	.st2{fill:#FFDC00;}
	.st3{fill:#234A8A;}
	.st4{fill:#333333;}
</style>
<g>
	<g>
		<defs>
			<polygon id="SVGID_1_" points="-108.5,-229 -107.5,-229 -108.5,-228 			"/>
		</defs>
		<clipPath id="SVGID_00000152230672753242248420000014435571604710238122_">
			<use xlink:href="#SVGID_1_"  style="overflow:visible;"/>
		</clipPath>
	</g>
</g>
<g transform="translate(0,0)">
	<g>
		<path class="st0" d="M7.2,1.7h130.5c2.9,0,5.3,2.4,5.3,5.3v125.9c0,2.9-2.4,5.3-5.3,5.3H7.2c-2.9,0-5.3-2.4-5.3-5.3V7.1
			C1.9,4.1,4.2,1.7,7.2,1.7z"/>
		<path class="st1" d="M143,70c0-10.3-3.3-20.2-9.5-28.4L108.7,8.4c-2.1-2.8-6.4-2.8-8.5,0L82,32.7c-1.4,1.9-1.4,4.5,0,6.4
			l18.9,25.3c2.5,3.4,2.5,8,0,11.4L82,100.9c-1.4,1.9-1.4,4.5,0,6.4l18.2,24.3c2.1,2.8,6.4,2.8,8.5,0l24.9-33.2
			C139.7,90.2,143,80.3,143,70z"/>
		<path class="st2" d="M88.5,66.8L76.7,51.1c-2.1-2.8-6.4-2.8-8.5,0L56.3,66.8c-1.4,1.9-1.4,4.5,0,6.4l11.8,15.7
			c2.1,2.8,6.4,2.8,8.5,0l11.8-15.7C89.9,71.3,89.9,68.7,88.5,66.8z"/>
		<path class="st3" d="M42.1,70c0-2.1,0.7-4.1,1.9-5.7l40.5-54.1c2.6-3.5,0.1-8.5-4.3-8.5H46.8c-3.6,0-7,1.7-9.1,4.5L11.4,41.6
			c-12.7,16.8-12.7,40,0,56.9l26.4,35.3c2.2,2.9,5.5,4.6,9.1,4.5h33.4c4.4,0,6.9-5,4.3-8.5L44,75.7C42.8,74.1,42.1,72.1,42.1,70z"/>
	</g>
</g>
<g transform="translate(67,13.749275207519531)">
	<g transform="translate(0,0)">
		<g transform="scale(1)">
			<g>
				<path class="st4" d="M107.2,52.5c-0.7,0-1.4-0.3-1.9-0.8s-0.8-1.2-0.8-1.9l0,0V24.9v-3.5h25.4l-1.3,3.5h-18.4V49h20.5l-1.3,3.5
					H107.2z M92.5,52.5l4.1-9.7v-4.1h5.8v4.6l-3.9,9.3L92.5,52.5L92.5,52.5z M92.5,29.6h6l3.9,7.4h-6L92.5,29.6z M92.5,20.7h6
					l3.9,7.4h-6L92.5,20.7z M144.4,47.6l9.9-16.2H145v-3.5h10.3v-7.6h5.5v7.6h12l-1.3,3.5h-10.8l-1.7,2.7h5.1l9.4,13.5h-6.1
					l-8.8-12.7l-7.8,12.7H144.4z M134.3,32v-3.5h8.7v17.2l-1.2,3.3h31.6l-1.3,3.5h-37l2.4-6.8V32H134.3z M135.3,20.4h5.7l2.8,6h-5.7
					L135.3,20.4z M181.3,52.5V33h-4.7v-3.5h4.7v-4.4h-4.1v-3.5h8.2l0.4-1.2h5.8l-1.4,4.7h-3.4v4.4h5.2l-1.3,3.5h-4v19.6L181.3,52.5
					L181.3,52.5z M176.5,52.5l0.7-17.8h3.6l-0.7,17.8H176.5z M187.2,34.7h3.6l0.7,17.8H188L187.2,34.7z M192.4,52.5V49h5.9l-2.5-4.8
					h5.5l2.5,4.8h2.8l3.1-6.7h-17.3l1.9-5.6h5.5l-0.7,2.1h16v3.5l-4.7,10.2H192.4z M192.4,26l1.9-5.6h5.5l-0.7,2.1h16V26l-4.7,9.2
					h-17.9v-3.5h6.6l-2.1-4.2h5.5l2.1,4.2h2.1l2.9-5.7H192.4z M220.4,52.5V21l5.6,0.1h29.8v9.8c0,0.7-0.3,1.3-0.8,1.9
					s-1.2,0.8-1.9,0.8l0,0h-7v4.8H257l-1.2,3.5h-7.9l9.4,10.6h-6.8l-9.4-10.6H226v6.4l10.8-1.1v3.6L220.4,52.5z M226.1,38.4h14.4
					v-4.8h-14.4V38.4z M226.1,30.1h24.2v-5.5h-24.2V30.1z M274.1,52.5V39.8h24.1v10c0,0.8-0.2,1.4-0.7,1.9s-1.1,0.8-1.8,0.8l0,0
					H274.1z M261.3,33.7l5.2-13.4h5.5l-4,10.2h2v22h-5.6V33.7H261.3z M272.8,26.1v-3.5h10.1l-0.6-2.3h5.7l0.6,2.3H300l-1.2,3.5
					H272.8z M274.3,37.4v-3.5H298l-1.2,3.5H274.3z M274.3,31.8v-3.5H298l-1.2,3.5H274.3z M279.8,49h12.8v-5.8h-12.8V49z M307.2,41.2
					V22.7h8.8l1.1-2.2h6l-1.1,2.2h17.2v15.9c0,0.7-0.3,1.3-0.8,1.9c-0.5,0.5-1.1,0.8-1.9,0.8l0,0L307.2,41.2L307.2,41.2z
					 M305.1,52.5l0.9-4.2v-5.4h5.5v5.4l-0.9,4.2H305.1z M312.9,37.7h20.8V36h-20.8V37.7z M312.9,32.8h20.8V31h-20.8V32.8z
					 M312.9,27.9h20.8v-1.8h-20.8V27.9z M314.6,49.9v-7.6h5.6V49h13.1l-1.3,3.5h-14.8c-0.7,0-1.4-0.3-1.9-0.8
					C314.9,51.2,314.6,50.6,314.6,49.9L314.6,49.9z M324,46.1v-3.2h5.5v3.2l0.5,1.7h-5.5L324,46.1z M335,48.5v-5.6h5.5v5.6l0.9,4
					h-5.5L335,48.5z M357.3,37.7l9.6-8.6v-1.7h5.5V30l-1.5,1.4h6.1l7.1,6.4h-6.4l-6.9-6.2l-6.9,6.2L357.3,37.7L357.3,37.7z
					 M347.1,37.7l4.8-8.5h5.8l-4.8,8.5H347.1z M348.6,21.3h5.8l3.3,6.2h-5.8L348.6,21.3z M348.7,52.4V40h33.7v9.8
					c0,0.8-0.3,1.4-0.8,1.9s-1.1,0.8-1.9,0.8l0,0L348.7,52.4L348.7,52.4z M354.4,48.9h22.4v-5.5h-22.4V48.9z M358.9,26.1l2-5.8h5.5
					l-0.8,2.3h17.9v3.5l-1.3,3.2h-5.5l1.3-3.2C378,26.1,358.9,26.1,358.9,26.1z M392.5,52.5V32h-3.9v-3.5h9.6v18.8l2-0.5v3.6
					L392.5,52.5z M390.6,20.4h5.5l2.8,6h-5.5L390.6,20.4z M400.7,26.2l1.5-5.9h6.1l-0.6,2.4h19.4v25.7l-1.7,4.1h-6l2-4.9V26.2H400.7
					z M402.1,49.3V28.7h13.8h2.5v18c0,0.7-0.3,1.3-0.8,1.9c-0.5,0.5-1.2,0.8-1.9,0.8l0,0h-13.6V49.3z M407.7,45.8h5.1v-5.5h-5.1
					V45.8z M407.7,36.9h5.1v-4.7h-5.1V36.9z M431.6,44.9V24.8h15.8v-4.5h5.8v4.5h15.9v17.5c0,0.8-0.3,1.4-0.8,1.9s-1.1,0.8-1.9,0.8
					l0,0h-13.2v7.6h-5.8V45L431.6,44.9L431.6,44.9z M437.3,41.5h10.1V28.3h-10.1V41.5z M453.2,41.5h10.2V28.3h-10.2V41.5z
					 M489.8,52.5L489.8,52.5h-2.6c-0.7,0-1.4-0.3-1.9-0.8s-0.8-1.1-0.8-1.9l0,0V20.4h5.6V49h12.3l-1.3,3.5H489.8z M473.3,52.5
					l1.7-8.6V22.3h5.6V44l-1.7,8.6L473.3,52.5L473.3,52.5z M494.2,38.9V22.4h5.6v16.5l1.3,6.2h-5.6L494.2,38.9z M504.9,43.9V22.3
					h5.6V44l1.7,8.6h-5.6L504.9,43.9z"/>
			</g>
		</g>
	</g>
	<g transform="translate(5,19.68000030517578)">
		<rect x="99.3" y="58.5" class="st4" width="47.9" height="2.4"/>
		<rect x="447.4" y="58.5" class="st4" width="47.9" height="2.4"/>
		<g transform="translate(23.3699951171875,0)">
			<g transform="scale(1)">
				<path class="st4" d="M146.9,47.4L146.9,47.4c1.8,0.1,2.7,0.3,2.8,0.6l0,0c0,0,0,0.1-0.1,0.3l0,0c-0.3,0.3-0.5,0.5-0.5,0.8l0,0
					c-0.1,0.6-0.2,1.1-0.4,1.6l0,0h4.2c0.9,0,1.8-0.1,2.8-0.2l0,0v2.1c-0.4-0.1-1.2-0.1-2.4-0.1l0,0h-2.8c1.3,2.4,3.4,3.9,6.3,4.6
					l0,0c-0.8,0.7-1.3,1.4-1.4,2.3l0,0c-1-0.5-2.1-1.2-3.2-2.2l0,0v1.6c-0.7-0.1-1.6-0.2-2.7-0.2l0,0h-2.8c-1,0-1.7,0.1-2.3,0.2l0,0
					v-1.4c-0.5,0.4-1.2,1-2.1,1.6l0,0c-0.4,0.2-0.7,0.4-0.9,0.5l0,0c-0.5-0.9-1.2-1.4-2.1-1.6l0,0c1.4-0.4,2.7-1,4-2l0,0
					c1.2-1.1,2.2-2.3,2.8-3.5l0,0h-1.5c-1.1,0-2,0.1-2.7,0.2l0,0v-2.2c0.9,0.2,1.8,0.3,2.7,0.3l0,0h2.1
					C146.8,49.8,146.9,48.7,146.9,47.4z M132.8,49.1L132.8,49.1c0.9,0.2,2.1,0.2,3.7,0.2l0,0c1.9,0,3.3,0,4.2-0.1l0,0
					c-0.1,0.7-0.2,2-0.2,3.7l0,0c0,2,0.1,3.4,0.2,4.1l0,0c-1-0.2-1.9-0.3-2.8-0.2l0,0v4c1.5,0,2.5-0.1,3-0.2l0,0v2
					c-1-0.2-2-0.3-3-0.2l0,0V67c1-0.2,2.1-0.5,3.3-0.9l0,0c0.3-0.1,0.5-0.2,0.7-0.2l0,0l-0.2,2.4c-5.1,0.9-8.5,1.6-10,2.2l0,0
					l-0.8-2.3c0.2,0.1,0.5,0.1,1,0l0,0c0.3-0.1,0.5-0.1,0.7-0.1l0,0v-5.9c0-1,0-1.9-0.1-2.8l0,0c1.3-0.1,2.2,0,2.6,0.3l0,0
					c0,0,0,0-0.1,0.1l0,0c-0.4,0.4-0.6,0.9-0.6,1.4l0,0v6.4c0.4-0.1,1-0.2,1.8-0.3l0,0V56.9c-1.2,0-2.3,0-3.4,0.1l0,0
					c0.1-0.5,0.2-1.8,0.2-4l0,0C133,51.1,132.9,49.8,132.8,49.1z M138.5,51.2h-3.6V55h3.6V51.2z M149,52.4L149,52.4h-1
					c-0.6,1.2-1.5,2.5-2.8,4.1l0,0c0.1-0.1,0,0-0.2,0.2l0,0c0.1,0,0.2,0,0.2,0l0,0c0.7,0.1,1.2,0.2,1.8,0.2l0,0h2.4
					c0.8,0,1.5-0.1,2-0.3l0,0C150.2,55.3,149.3,53.9,149,52.4z M155.2,60.4L155.2,60.4v2.2c-0.5-0.1-1.4-0.2-2.8-0.2l0,0h-5.7
					l-0.6,2.2h5.1c1.2,0,2.1,0,2.6-0.1l0,0c-0.1,0.4-0.2,0.9-0.3,1.8l0,0c-0.6,2.8-1,4.4-1.3,4.8l0,0c-0.6,0.7-2.2,1.2-4.8,1.3l0,0
					c0-1-0.4-1.9-1.1-2.5l0,0c1.9,0.3,3.2,0.3,4,0l0,0c0.5-0.9,0.9-2,1.2-3.4l0,0l-7.8,0.2c0.4-1.3,0.8-2.7,1.2-4.2l0,0
					c-1.3,0-2.4,0.1-3.2,0.2l0,0v-2.2c0.8,0.1,1.9,0.2,3.2,0.2l0,0h7.6C153.6,60.6,154.5,60.5,155.2,60.4z M181.2,47.3l2.5-0.3
					c0,0,0.3,0.9,0.9,2.7l0,0h2.7c1.5-0.1,2.8-0.2,3.9-0.2l0,0v2.2c-1.2-0.1-2.4-0.2-3.8-0.2l0,0h-8.7c-1.5,0-2.5,0-3.2,0.1l0,0v-2
					c0.7,0.1,1.7,0.1,3.2,0.1l0,0h3.6C182.1,49.1,181.7,48.3,181.2,47.3L181.2,47.3z M169.7,47.1L169.7,47.1
					c1.9,0.1,2.8,0.3,2.8,0.7l0,0c0,0.1,0,0.2-0.1,0.2l0,0c-0.3,0.4-0.4,0.8-0.4,1.2l0,0V54h0.3c0.9,0,1.5,0,1.9-0.1l0,0v2.3
					c-0.3-0.1-0.9-0.1-1.8-0.1l0,0H172v8c0.9-0.2,1.9-0.5,3-1l0,0l-0.2,2.3c-2,0.8-4.5,1.6-7.5,2.4l0,0l-0.8-2.6
					c0.4-0.1,1.6-0.3,3.4-0.7l0,0v-8.4h-0.6c-0.3,0-0.7,0-1.3,0.1l0,0c-0.5,0-0.9,0-1.1,0l0,0V54c0.5,0.1,1.3,0.1,2.3,0.1l0,0h0.5
					v-5.3C169.8,48.2,169.8,47.6,169.7,47.1z M185.5,51.6L185.5,51.6l2.3,0.8c0,0,0,0-0.1,0.1l0,0c-0.4,0.8-0.9,1.4-1.3,1.9l0,0h1.3
					c1.9,0,3.3-0.1,4.4-0.3l0,0v2.3c-1-0.1-2.4-0.2-4.2-0.2l0,0h-9.5c-1.9,0-3.1,0.1-3.5,0.2l0,0v-2.2c1.3,0.1,2.5,0.2,3.4,0.2l0,0
					h1.1c-0.4-0.7-0.9-1.4-1.4-2.1l0,0l2.4-0.4c0.4,0.7,0.9,1.5,1.3,2.5l0,0h2.7c0.1-0.1,0.1-0.3,0.2-0.5l0,0
					C184.8,53.5,185.1,52.7,185.5,51.6z M187.6,59h-9.5v2h9.5V59z M187.6,62.4h-9.5v1.9h9.5V62.4z M175.9,57.5L175.9,57.5
					c1.2,0.1,2.1,0.2,2.6,0.1l0,0h8.6c0.8,0,1.6,0,2.5-0.1l0,0c-0.1,0.7-0.1,1.4-0.1,1.9l0,0v4.3c0,1.2,0.1,2,0.2,2.3l0,0
					c-0.4-0.2-1.1-0.2-2.3-0.2l0,0h-2.1v3.5c0,0.3,0.3,0.5,0.8,0.6l0,0c0.1,0.1,0.2,0.1,0.2,0.1l0,0c1.1,0.1,2.1,0,2.9-0.2l0,0
					c0.4,0,0.7-0.7,0.9-2.2l0,0c0.7,0.7,1.5,1.1,2.4,1.4l0,0c-0.5,1.5-1.1,2.4-1.7,2.7l0,0c-1.5,0.4-3.5,0.4-6,0.2l0,0
					c-1.3-0.1-1.8-0.7-1.6-2l0,0v-4.1H181c0.1,3.7-2.4,5.9-7.6,6.6l0,0c-0.2-0.5-0.7-1.2-1.6-2.1l0,0c4.7-0.1,7.1-1.6,7.2-4.5l0,0
					h-1c-0.9,0-1.6,0.1-2.2,0.2l0,0c0.1-0.5,0.2-1.3,0.2-2.5l0,0v-4.2C176,58.7,176,58.1,175.9,57.5z M214.1,47.6l2.8-0.5
					c0.4,0.7,0.7,1.8,1,3.4l0,0h6.5c1.5,0,2.4,0,2.6-0.1l0,0c0,0.1,0,0.4,0,0.8l0,0c-0.1,0.8-0.1,1.5-0.1,2l0,0
					c0,0.8,0.1,1.6,0.2,2.4l0,0c0,0.1,0,0.3,0,0.3l0,0h-2.9c0.1-0.9,0.2-2,0.2-3.4l0,0h-17.2c0,1.8,0.1,2.9,0.2,3.4l0,0h-2.8
					c0-0.1,0-0.2,0-0.4l0,0c0.2-0.8,0.2-1.6,0.2-2.4l0,0c0-1.4-0.1-2.3-0.2-2.8l0,0c1.3,0.1,2.3,0.2,3.2,0.2l0,0h7.4
					c0,0.1,0,0-0.1-0.3l0,0C214.8,49.2,214.4,48.4,214.1,47.6L214.1,47.6z M214.2,53.8L214.2,53.8c1.9,0.4,2.9,0.8,2.9,1l0,0
					c0,0.1-0.1,0.2-0.3,0.3l0,0c-0.2,0.2-0.4,0.4-0.5,0.7l0,0c-0.5,0.7-1.1,1.7-1.8,2.8l0,0h9.7c2,0,3.4-0.1,4.1-0.2l0,0v2.5
					c-0.7-0.1-2-0.2-4-0.2l0,0h-2c-0.8,2.4-1.7,4.2-2.8,5.6l0,0c2.9,1.1,5.5,2.2,7.8,3.4l0,0l-2.2,2.2c-1.9-1.6-4.3-2.9-7.2-4l0,0
					c-2.8,2-6.8,3.4-12.1,4.3l0,0c-0.3-0.8-0.9-1.7-1.9-2.5l0,0c5.1-0.2,9-1.1,11.8-2.8l0,0c-0.4-0.2-0.8-0.3-1.3-0.4l0,0
					c-2.1-0.8-4.2-1.4-6.2-1.8l0,0c1.3-1.9,2.2-3.3,2.7-4.1l0,0h-3.5c-1.5-0.1-2.8,0-3.9,0.2l0,0v-2.5c0.7,0.2,1.9,0.2,3.9,0.2l0,0
					h4.6c0-0.1,0-0.2,0.1-0.2l0,0C213.1,56.5,213.8,55,214.2,53.8z M219.9,60.7L219.9,60.7h-6.5l-2,3c2.3,0.6,4.2,1.2,5.9,1.8l0,0
					C218.4,64.1,219.2,62.5,219.9,60.7z M244.1,55.9v-2.4c1.5,0.1,3.1,0.2,4.6,0.2l0,0h6.5c1.5,0,3.1-0.1,4.8-0.2l0,0v2.4
					c-1.6-0.1-3.2-0.2-4.8-0.2l0,0h-1.8c-0.3,0.2-0.8,0.5-1.4,1l0,0c-0.6,0.4-1,0.8-1.3,1l0,0c1.3,1.1,2.3,2.2,3.1,3.4l0,0
					c1.7-0.7,3.5-2.1,5.5-4.1l0,0c1.2,0.8,1.9,1.4,2.1,1.9l0,0c0,0.1-0.1,0.3-0.4,0.3l0,0c-0.4,0.1-0.7,0.2-1.1,0.5l0,0
					c-0.3,0.1-0.7,0.4-1.3,0.8l0,0c-0.3,0.2-0.5,0.4-0.7,0.4l0,0c0.8,3.6,3,5.9,6.7,6.9l0,0c-1.1,0.6-2,1.3-2.7,2.3l0,0
					c-3.2-2-5.2-4.8-6-8.4l0,0c-0.4,0.3-0.9,0.7-1.4,1.1l0,0c0.8,4,0.4,6.7-1.3,8l0,0c-1,0.7-2.5,1.1-4.3,1.2l0,0
					c-0.1-1.3-0.4-2.1-1-2.7l0,0c2.1,0.2,3.3,0.1,3.6-0.2l0,0c1-0.7,1.4-2.5,1.1-5.3l0,0c-2.9,2.8-6.8,5.1-11.5,6.9l0,0
					c-0.3-0.9-1-1.6-2-2.1l0,0c4.3-0.7,8.6-2.9,12.9-6.7l0,0c-0.4-0.6-0.7-1-0.9-1.3l0,0c-2.6,2.3-6,4.2-10.1,5.7l0,0
					c-0.4-0.9-0.9-1.6-1.8-2.1l0,0c3.7-0.4,7.3-2.1,10.8-4.9l0,0c-0.1-0.1-0.1-0.1-0.2-0.2l0,0c-0.2-0.4-0.5-0.6-0.8-0.8l0,0
					c-2.9,1.8-5.6,2.9-8.2,3.5l0,0c-0.3-0.8-0.8-1.5-1.6-2.1l0,0c3.8-0.4,7.5-1.8,11-4.4l0,0h-1.6C247,55.8,245.4,55.9,244.1,55.9
					L244.1,55.9z M250,47.4l3.1-0.4c0.4,1.5,0.6,2.5,0.7,3l0,0h6.5c1,0,2-0.1,3.2-0.3l0,0v2.2c0,1.2,0.1,2.1,0.2,2.8l0,0h-2.9
					c0.2-0.4,0.2-1.3,0.2-2.8l0,0h-18c0,1.1,0.1,2,0.2,2.8l0,0h-2.8c0.1-0.9,0.2-1.8,0.2-2.8l0,0v-2.2c0.7,0.1,1.7,0.2,3,0.2l0,0
					h7.6C250.9,48.9,250.5,48,250,47.4L250,47.4z M298.4,47.1L298.4,47.1c1.3-0.1,2.3,0,3.1,0.2l0,0c0,0,0,0.1-0.1,0.2l0,0
					c-0.4,0.4-0.5,0.7-0.5,1l0,0c0,0.9,0,2.1,0.1,3.7l0,0h3c1.2,0,2.2-0.1,3.2-0.2l0,0v2.2c-0.4-0.2-1.5-0.3-3.2-0.2l0,0h-3
					c0.2,2.9,0.6,5.9,1.4,9.1l0,0c0.8-1.8,1.4-3.9,1.8-6.4l0,0c2,0.5,2.9,0.9,2.9,1.1l0,0c0,0.1-0.1,0.2-0.2,0.3l0,0
					c-0.4,0.3-0.6,0.6-0.7,0.9l0,0c-0.8,2.6-1.7,4.8-2.8,6.7l0,0c0.8,2.1,1.6,3.4,2.5,3.8l0,0c0.4-0.5,0.6-1.4,0.6-2.9l0,0
					c0.6,0.7,1.3,1.2,2.3,1.4l0,0c-0.6,2.7-1.2,4.1-1.8,4.1l0,0c-1.5,0.4-3.2-1-5.2-4.2l0,0c-0.9,1.3-2.4,2.8-4.5,4.3l0,0
					c-0.5-0.7-1.3-1.2-2.2-1.6l0,0c2.4-1.2,4.3-2.9,5.7-5.1l0,0c-1-3.5-1.6-7.3-1.9-11.6l0,0h-6v3.6h2.3c1.1,0,2,0,2.5-0.1l0,0
					c0,0,0,0.3-0.1,1l0,0c-0.1,0.9-0.1,1.5-0.1,1.9l0,0c0,3.3-0.1,5.5-0.3,6.5l0,0c-0.2,0.7-1.4,1.2-3.6,1.5l0,0c0-0.1,0-0.1,0-0.2
					l0,0c-0.1-1.2-0.4-2-0.7-2.4l0,0c0.1,0,0.3,0,0.5,0.1l0,0c1.1,0.2,1.7,0.2,1.8-0.1l0,0c0.2-0.2,0.3-2.3,0.3-6.3l0,0H293
					c0,5.7-1,10-2.9,12.7l0,0c-0.8-0.3-1.7-0.6-2.6-0.8l0,0c2.3-2.6,3.4-6,3.4-10.1l0,0v-5.1c0-1.6-0.1-3.1-0.2-4.3l0,0
					c0.7,0.2,1.8,0.3,3.4,0.3l0,0h4.7C298.8,49.7,298.7,48,298.4,47.1z M302.7,48.5l1.9-0.9c0.7,1,1.3,1.9,1.6,2.8l0,0l-2,1
					c-0.1-0.5-0.5-1.3-1.2-2.4l0,0C302.9,48.8,302.8,48.6,302.7,48.5L302.7,48.5z M284.4,49.4l2.3-1.2c0.3,0.5,0.7,1.2,1.1,2l0,0
					c0.7,1.2,1.2,2.1,1.5,2.8l0,0l-2.4,1C286.2,52.3,285.4,50.7,284.4,49.4L284.4,49.4z M282.4,57.9v-2.1c0.4,0.2,1.2,0.2,2.2,0.2
					l0,0c1.7,0,2.7,0,3-0.1l0,0c-0.1,0.4-0.2,1.4-0.2,3l0,0v6.6c0.5-0.5,1.1-1.3,1.9-2.2l0,0c0.1,0.9,0.4,1.6,0.9,2.1l0,0
					c-1.6,1.5-2.9,2.8-3.7,4l0,0c-0.2-0.4-0.8-1-1.7-1.6l0,0c0.4-0.6,0.6-1.4,0.6-2.3l0,0v-7.7h-0.6
					C283.9,57.7,283.2,57.8,282.4,57.9L282.4,57.9z M333.1,47.8l2.9-0.7c0.8,2.1,1.2,3.2,1.2,3.2l0,0l-2.9,0.7
					C334.1,49.9,333.6,48.9,333.1,47.8L333.1,47.8z M324.2,47.2L324.2,47.2c2.1,0.7,3.1,1.2,3,1.5l0,0c0,0.2-0.1,0.3-0.3,0.6l0,0
					c-0.3,0.2-0.5,0.4-0.5,0.5l0,0c-0.4,0.7-0.7,1.5-1.1,2.4l0,0c-0.1,0.2-0.2,0.4-0.2,0.4l0,0v15c0,2.2,0,3.7,0.1,4.5l0,0h-2.7
					c0.2-1.3,0.2-2.8,0.2-4.4l0,0V57c-0.4,1-1.3,2.4-2.5,4.4l0,0l-1.6-2.2C321.1,56.1,323.1,52.1,324.2,47.2z M343.8,51.1
					L343.8,51.1v2.3c-1.2-0.1-2.6-0.2-4.3-0.2l0,0h-8.4c-1.5,0-3,0.1-4.3,0.2l0,0v-2.3c1.9,0.1,3.3,0.2,4.3,0.2l0,0h8.3
					C340.8,51.3,342.3,51.2,343.8,51.1z M342.3,55.2L342.3,55.2v2.1c-1-0.1-2.6-0.1-4.6-0.2l0,0h-5.6c-0.2,0-0.8,0-1.8,0l0,0
					c-1.3,0.1-2.2,0.1-2.5,0.1l0,0v-2.1c1.3,0.1,2.8,0.2,4.3,0.2l0,0h5.6C340,55.3,341.6,55.2,342.3,55.2z M327.8,60.8v-2.1
					c1.9,0.2,3.3,0.2,4.2,0.2l0,0h6c2.2,0,3.6,0,4.2-0.1l0,0v2.1c-1-0.1-2.4-0.2-4.2-0.2l0,0h-6C330,60.7,328.6,60.7,327.8,60.8
					L327.8,60.8z M330.5,64.9v3.5h9v-3.5H330.5z M342,63L342,63c-0.1,0.4-0.1,0.9-0.1,1.8l0,0V70c0,1,0,1.5,0.1,1.8l0,0h-2.5
					c0.1-0.4,0.1-0.9,0.1-1.8l0,0h-9c0,0.8,0,1.5,0.1,2.1l0,0h-2.4c0.1-0.1,0.1-0.8,0.1-2.1l0,0v-5.3c0-0.6,0-1.2-0.1-1.8l0,0
					c0.7,0.2,1.5,0.2,2.3,0.2l0,0h9c0.2,0,0.7,0,1.3-0.1l0,0C341.5,63,341.9,63,342,63z M360.4,47L360.4,47c2,0.5,3,0.9,3,1.1l0,0
					c0,0.1,0,0.2-0.1,0.2l0,0c-0.3,0.3-0.6,0.7-0.8,1.3l0,0c-0.2,0.5-0.5,1.2-0.9,2.1l0,0c-0.4,0.7-0.6,1.2-0.7,1.4l0,0v14.4
					c0,1.8,0.1,3.2,0.2,4.4l0,0c0,0.2,0,0.2,0,0.2l0,0h-2.8c0-0.1,0-0.2,0-0.3l0,0c0.1-1.2,0.2-2.6,0.2-4.3l0,0V58
					c-0.6,1.3-1.4,2.6-2.3,4l0,0l-1.7-2C357.2,57,359.2,52.6,360.4,47z M363.5,51.3v-2.4c0,0,0.1,0,0.3,0l0,0
					c1.1,0.2,2.3,0.3,3.6,0.3l0,0h8.3c1.9,0,3.3-0.1,4.2-0.3l0,0c0.1,0,0.2,0,0.2,0l0,0v2.5c0,0-0.1,0-0.2,0l0,0
					c-1.2-0.2-2.6-0.3-4.3-0.3l0,0h-3.2v2.3h3.4c1.6,0,2.5-0.1,3-0.2l0,0c-0.2,0.2-0.2,1.2-0.2,2.9l0,0v4.8c0,1.3,0.1,2.2,0.2,2.5
					l0,0c-0.2-0.1-1.1-0.1-2.8-0.1l0,0h-3.8c-0.3,1.7-0.8,3.1-1.6,4.3l0,0c1.6,1.1,4.9,1.8,9.8,2l0,0c-0.7,0.5-1.2,1.4-1.6,2.8l0,0
					c-4-0.8-7.1-1.9-9.5-3.2l0,0c-1.3,1-3.3,2-6,3.2l0,0c-0.5-0.7-1.2-1.4-2.1-2.1l0,0c2.3-0.3,4.4-1.1,6.2-2.3l0,0
					c-0.3-0.2-1-0.9-2-2l0,0c-0.6-0.6-1-1-1.3-1.3l0,0l2.2-1.1c0.5,0.9,1.4,1.9,2.5,3.1l0,0c0.5-0.7,0.9-1.8,1.2-3.3l0,0h-3.2
					c-1.6,0-2.6,0.1-3,0.2l0,0c0.1-0.4,0.2-1.4,0.2-2.8l0,0V56c0-1.6-0.1-2.5-0.2-2.9l0,0c0.5,0.1,1.6,0.2,3.2,0.2l0,0h3.2V51h-2.9
					c-1.4,0-2.6,0.1-3.6,0.2l0,0C363.7,51.3,363.6,51.3,363.5,51.3L363.5,51.3z M370.3,55.1h-4.1v2.4h4.1V55.1z M376.5,55.1h-4.1
					v2.4h4.1V55.1z M370.3,58.9h-4.1v2.5h4.1V58.9z M376.5,58.9h-4.1v2.5h4.1V58.9z M406.5,47L406.5,47c1.8,0,2.7,0.1,2.9,0.2l0,0
					c0,0,0,0.1-0.1,0.3l0,0c-0.2,0.2-0.3,0.4-0.4,0.7l0,0c-0.1,0.6-0.1,1.1-0.1,1.6l0,0h4.3c1.5,0,2.5,0,3.2-0.1l0,0v2
					c-0.5-0.1-1.5-0.1-3.2-0.1l0,0h-4.3v2.1h3.5c0.7,0,1.4,0,2.1-0.1l0,0c0,0,0,0.6-0.1,1.8l0,0v1.9c1.4,0,2.3,0,2.7-0.1l0,0v2.2
					c-0.4-0.2-1.3-0.2-2.7-0.2l0,0v1.9c0.1,1.3,0.1,1.9,0.1,1.9l0,0c-0.4-0.1-1.1-0.1-2.2-0.1l0,0h-3.4V65h3.2c1,0,1.9-0.1,3-0.2
					l0,0v2.1c-0.6-0.1-1.6-0.1-3-0.1l0,0h-3.2v3c2.7,0.1,5.3,0.1,7.8-0.2l0,0c-0.6,0.6-1,1.5-1.3,2.6l0,0c-4.3,0.1-7.4-0.3-9.2-1.1
					l0,0c-1.7-0.7-2.9-1.7-3.6-3.2l0,0c-0.8,1.6-1.7,3-2.8,4.4l0,0c-0.7-0.5-1.5-0.8-2.3-1l0,0c2.1-1.8,3.6-4.2,4.4-7.4l0,0
					c1.2,0.3,2.1,0.6,2.6,0.9l0,0c0,0.1-0.2,0.3-0.7,0.5l0,0c-0.2,0.3-0.3,0.5-0.3,0.7l0,0c0.5,1.6,1.6,2.8,3.3,3.4l0,0v-6.7H404
					c-1.6,0-2.7,0-3.2,0.1l0,0v-2.1c1.2,0.1,2.3,0.2,3.3,0.2l0,0h2.5V59h-3.3c-1,0-2.1,0.1-3.1,0.2l0,0v-2.1
					c0.6,0.1,1.6,0.1,3.1,0.1l0,0h3.3v-1.9h-2.2c-1.6,0-2.7,0-3.3,0.1l0,0v-2c0.9,0.1,2,0.1,3.3,0.1l0,0h2.2v-2.1h-3.1
					c-1,0-2.1,0.1-3.3,0.2l0,0v-2.1c0.7,0.1,1.8,0.1,3.3,0.1l0,0h3.1C406.7,48.1,406.6,47.2,406.5,47z M394.9,47L394.9,47
					c2-0.1,3.1,0,3.2,0.3l0,0c0,0.2-0.1,0.3-0.2,0.4l0,0c-0.3,0.4-0.5,1-0.6,1.6l0,0c-0.1,1.5-0.2,2.7-0.2,3.5l0,0
					c1.5,0,2.5,0,3-0.1l0,0v2.1c-0.6-0.1-1.6-0.1-3-0.1l0,0v4.8c0,0,0.1,0,0.2-0.1l0,0c0.8-0.3,1.6-0.7,2.3-1.2l0,0
					c-0.1,0.7,0,1.5,0.1,2.5l0,0c-0.7,0.1-1.5,0.4-2.6,1l0,0v8c-0.4,1.3-1.9,2.2-4.4,2.5l0,0c-0.1-1.1-0.5-2-1.1-2.8l0,0
					c2,0.3,3.1,0,3.4-0.8l0,0v-6.4c-0.1,0.1-0.4,0.2-0.9,0.3l0,0c-1.5,0.7-2.5,1.3-3.1,1.6l0,0c0-0.7-0.1-1.6-0.4-2.7l0,0
					c1.6-0.4,3.1-0.8,4.4-1.3l0,0v-5.5h-1c-1.4,0-2.4,0-2.9,0.1l0,0v-2.1c0.4,0.1,1.3,0.1,2.9,0.1l0,0h1.1
					C395.2,50.3,395.1,48.2,394.9,47z M412.4,57.2v-1.9h-3.5v1.9H412.4z M412.3,59h-3.4v1.9h3.4V59z"/>
			</g>
		</g>
	</g>
</g>
</svg>
